<svg width="384" height="168" viewBox="0 0 384 168" fill="none" xmlns="http://www.w3.org/2000/svg">
<g filter="url(#filter0_d_624_26258)">
<mask id="mask0_624_26258" style="mask-type:alpha" maskUnits="userSpaceOnUse" x="4" y="0" width="377" height="160">
<path d="M192.008 15.2094C201.288 15.2094 208.964 8.72027 209.264 0.5H379.508V159.5H209.264C208.964 151.28 201.288 144.791 192.008 144.791C182.727 144.791 175.051 151.28 174.751 159.5H4.50781V0.5H174.751C175.051 8.72027 182.727 15.2094 192.008 15.2094Z" fill="white" stroke="#DDDDDD"/>
</mask>
<g mask="url(#mask0_624_26258)">
<path d="M192.008 15.2094C201.288 15.2094 208.964 8.72027 209.264 0.5H379.508V159.5H209.264C208.964 151.28 201.288 144.791 192.008 144.791C182.727 144.791 175.051 151.28 174.751 159.5H4.50781V0.5H174.751C175.051 8.72027 182.727 15.2094 192.008 15.2094Z" fill="white" stroke="#EEEEEE"/>
<line x1="192.5" y1="103" x2="192.5" y2="143" stroke="#EEEEEE" stroke-dasharray="5 5"/>
<line x1="192.5" y1="16" x2="192.5" y2="56" stroke="#EEEEEE" stroke-dasharray="5 5"/>
<path d="M318.67 126H300C298.9 126 298 125.1 298 124V80C298 78.9 298.9 78 300 78H318.26C318.97 78 319.64 78.39 319.99 79.01L323.13 84.5C323.31 84.81 323.64 85 324 85H354V112C354 112.55 354.45 113 355 113C355.55 113 356 112.55 356 112V80C356 77.79 354.21 76 352 76H300C297.79 76 296 77.79 296 80V124C296 126.21 297.79 128 300 128H318.67C319.22 128 319.67 127.55 319.67 127C319.67 126.45 319.22 126 318.67 126ZM354 80V83H324.58L321.73 78.01C321.73 78.01 321.73 78.01 321.73 78H352.01C353.11 78 354.01 78.9 354.01 80H354ZM360 138.91C360.02 139.19 359.93 139.47 359.74 139.67C359.55 139.88 359.28 139.99 359 139.99H343.04C342.49 139.99 342.04 139.54 342.04 138.99C342.04 138.44 342.49 137.99 343.04 137.99H357.91L356.08 116.99H335.91L335.56 121.08C335.51 121.63 335.03 122.04 334.48 121.99C333.93 121.94 333.52 121.46 333.57 120.91L334 115.91C334.04 115.39 334.48 115 335 115H357C357.52 115 357.95 115.4 358 115.91L360 138.91ZM337 124H323C322.5 124 322.08 124.37 322.01 124.86L320.01 138.86C319.97 139.15 320.05 139.44 320.24 139.66C320.43 139.88 320.71 140 321 140H339C339.29 140 339.57 139.87 339.76 139.66C339.95 139.44 340.04 139.15 339.99 138.86L337.99 124.86C337.92 124.37 337.5 124 337 124ZM322.15 138L323.86 126H336.13L337.84 138H322.15ZM333 130V131C333 132.65 331.65 134 330 134C328.35 134 327 132.65 327 131V130C327 129.45 327.45 129 328 129C328.55 129 329 129.45 329 130V131C329 131.55 329.45 132 330 132C330.55 132 331 131.55 331 131V130C331 129.45 331.45 129 332 129C332.55 129 333 129.45 333 130ZM343 121V123C343 124.65 344.35 126 346 126C347.65 126 349 124.65 349 123V121C349 120.45 349.45 120 350 120C350.55 120 351 120.45 351 121V123C351 125.76 348.76 128 346 128C343.24 128 341 125.76 341 123V121C341 120.45 341.45 120 342 120C342.55 120 343 120.45 343 121ZM317 83C316.45 83 316 82.55 316 82C316 81.45 316.45 81 317 81C317.55 81 318 81.45 318 82C318 82.55 317.55 83 317 83ZM309 120H325C325.55 120 326 119.55 326 119V107.85L331.16 106.99C331.43 106.95 331.66 106.79 331.82 106.57C331.97 106.35 332.03 106.07 331.98 105.81L329.98 95.81C329.92 95.51 329.72 95.25 329.45 95.11L321.45 91.11C321.34 91.06 321.15 91 321 91H313C312.87 91 312.69 91.04 312.55 91.11L304.55 95.11C304.27 95.25 304.08 95.51 304.02 95.81L302.02 105.81C301.97 106.08 302.02 106.35 302.18 106.57C302.33 106.79 302.57 106.94 302.84 106.99L308 107.85V119C308 119.55 308.45 120 309 120ZM320 93C320 94.65 318.65 96 317 96C315.35 96 314 94.65 314 93H320ZM304.18 105.18L305.88 96.67L312.05 93.58C312.35 96.06 314.44 97.99 316.99 97.99C319.54 97.99 321.64 96.06 321.93 93.58L328.1 96.67L329.8 105.18L325.98 105.82V102C325.98 101.45 325.53 101 324.98 101C324.43 101 323.98 101.45 323.98 102V118H309.98V102C309.98 101.45 309.53 101 308.98 101C308.43 101 307.98 101.45 307.98 102V105.82L304.16 105.18H304.18ZM350 92C350 91.45 349.55 91 349 91H335C334.45 91 334 91.45 334 92V98C334 98.55 334.45 99 335 99H349C349.55 99 350 98.55 350 98V92ZM348 97H336V93H348V97ZM350 103C350 103.55 349.55 104 349 104H335C334.45 104 334 103.55 334 103C334 102.45 334.45 102 335 102H349C349.55 102 350 102.45 350 103ZM350 108C350 108.55 349.55 109 349 109H335C334.45 109 334 108.55 334 108C334 107.45 334.45 107 335 107H349C349.55 107 350 107.45 350 108Z" fill="#EEEEEE"/>
</g>
</g>
<path d="M182.816 87.212H181.024V74.136H182.816V87.212ZM175.48 85.546C173.52 85.546 171.91 84.314 171.91 81.122V79.12C171.91 75.928 173.52 74.696 175.48 74.696C177.426 74.696 179.036 75.928 179.036 79.12V81.122C179.036 84.314 177.426 85.546 175.48 85.546ZM175.48 83.922C176.446 83.922 177.244 83.222 177.244 81.122V79.12C177.244 77.02 176.446 76.32 175.48 76.32C174.514 76.32 173.702 77.02 173.702 79.12V81.122C173.702 83.222 174.514 83.922 175.48 83.922ZM193.893 78.854V80.114H197.071V81.626H184.751V80.114H187.929V78.854C186.809 78.504 186.123 77.762 186.123 76.656C186.123 75.032 187.621 74.248 189.777 74.248H192.059C194.201 74.248 195.713 75.032 195.713 76.656C195.713 77.776 195.013 78.504 193.893 78.854ZM187.901 76.67C187.901 77.314 188.699 77.636 190.113 77.636H191.723C193.123 77.636 193.921 77.314 193.921 76.67C193.921 76.04 193.123 75.732 191.723 75.732H190.113C188.699 75.732 187.901 76.04 187.901 76.67ZM189.609 79.106V80.114H192.213V79.106H189.609ZM189.357 82.508H192.465C194.565 82.508 195.783 83.544 195.783 84.93C195.783 86.33 194.565 87.352 192.465 87.352H189.357C187.271 87.352 186.053 86.33 186.053 84.93C186.053 83.544 187.271 82.508 189.357 82.508ZM189.693 85.798H192.143C193.445 85.798 193.991 85.462 193.991 84.916C193.991 84.37 193.445 84.048 192.143 84.048H189.693C188.391 84.048 187.831 84.37 187.831 84.916C187.831 85.462 188.391 85.798 189.693 85.798ZM204.257 82.942V81.528H207.575V74.136H209.367V84.482H207.575V82.942H204.257ZM201.261 80.772C200.939 80.786 200.645 80.786 200.351 80.786H198.237L198.167 79.26H200.519C201.387 79.26 202.521 79.218 203.711 79.134C203.893 78 203.991 76.936 204.005 76.152H199.007V74.626H205.741V75.326C205.741 76.572 205.643 77.818 205.475 78.98L206.651 78.854L206.833 80.338C205.643 80.506 204.285 80.632 202.997 80.702C202.941 81.5 202.857 82.326 202.759 83.222L201.051 83.124C201.135 82.284 201.205 81.528 201.261 80.772ZM202.143 83.642V85.588H209.843V87.212H200.351V83.642H202.143ZM216.203 81.458L215.517 79.876C218.555 78.91 219.885 77.832 220.067 76.81H216.273V75.228H220.095V73.94H221.873V75.228H225.597V76.81H221.859C221.845 77.174 221.761 77.524 221.621 77.86L226.339 79.904L225.569 81.458L220.585 79.274C219.675 80.1 218.247 80.828 216.203 81.458ZM214.775 82.382H227.095V84.006H221.831V87.352H220.039V84.006H214.775V82.382ZM238.662 78.868H240.552V80.492H238.662V87.212H236.87V74.136H238.662V78.868ZM233.02 76.74H228.512V75.102H234.826V76.39C234.826 80.114 232.824 83.306 229.24 85.728L228.134 84.328C231.494 82.13 233.02 79.218 233.02 76.74Z" fill="#DDDDDD"/>
<rect x="143.5" y="70.5" width="19" height="19" fill="white" stroke="#DDDDDD"/>
<rect x="154" y="75" width="10" height="2" transform="rotate(90 154 75)" fill="#D9D9D9"/>
<rect x="148" y="79" width="10" height="2" fill="#D9D9D9"/>
<defs>
<filter id="filter0_d_624_26258" x="0.0078125" y="0" width="384" height="168" filterUnits="userSpaceOnUse" color-interpolation-filters="sRGB">
<feFlood flood-opacity="0" result="BackgroundImageFix"/>
<feColorMatrix in="SourceAlpha" type="matrix" values="0 0 0 0 0 0 0 0 0 0 0 0 0 0 0 0 0 0 127 0" result="hardAlpha"/>
<feOffset dy="4"/>
<feGaussianBlur stdDeviation="2"/>
<feComposite in2="hardAlpha" operator="out"/>
<feColorMatrix type="matrix" values="0 0 0 0 0 0 0 0 0 0 0 0 0 0 0 0 0 0 0.25 0"/>
<feBlend mode="normal" in2="BackgroundImageFix" result="effect1_dropShadow_624_26258"/>
<feBlend mode="normal" in="SourceGraphic" in2="effect1_dropShadow_624_26258" result="shape"/>
</filter>
</defs>
</svg>
