<svg width="14" height="9" viewBox="0 0 14 9" fill="none" xmlns="http://www.w3.org/2000/svg">
<path d="M12.5417 9H1.45833C0.653333 9 0 8.37 0 7.59375V1.40625C0 0.63 0.653333 0 1.45833 0H12.5417C13.3467 0 14 0.63 14 1.40625V7.59375C14 8.37 13.3467 9 12.5417 9ZM1.45833 0.5625C0.974167 0.5625 0.583333 0.939375 0.583333 1.40625V7.59375C0.583333 8.06062 0.974167 8.4375 1.45833 8.4375H12.5417C13.0258 8.4375 13.4167 8.06062 13.4167 7.59375V1.40625C13.4167 0.939375 13.0258 0.5625 12.5417 0.5625H1.45833Z" fill="white"/>
<path d="M13.7083 3.9375H0.291667C0.128333 3.9375 0 3.81375 0 3.65625V1.96875C0 1.81125 0.128333 1.6875 0.291667 1.6875H13.7083C13.8717 1.6875 14 1.81125 14 1.96875V3.65625C14 3.81375 13.8717 3.9375 13.7083 3.9375ZM0.583333 3.375H13.4167V2.25H0.583333V3.375Z" fill="white"/>
<path d="M4.375 6.1875H2.04167C1.87833 6.1875 1.75 6.06375 1.75 5.90625C1.75 5.74875 1.87833 5.625 2.04167 5.625H4.375C4.53833 5.625 4.66667 5.74875 4.66667 5.90625C4.66667 6.06375 4.53833 6.1875 4.375 6.1875Z" fill="white"/>
<path d="M6.125 7.3125H2.04167C1.87833 7.3125 1.75 7.18875 1.75 7.03125C1.75 6.87375 1.87833 6.75 2.04167 6.75H6.125C6.28833 6.75 6.41667 6.87375 6.41667 7.03125C6.41667 7.18875 6.28833 7.3125 6.125 7.3125Z" fill="white"/>
</svg>
