<svg width="67" height="70" viewBox="0 0 67 70" fill="none" xmlns="http://www.w3.org/2000/svg">
<path d="M27.399 66.3895C26.9387 66.3895 26.5671 66.0173 26.5671 65.5563V4.4604C26.5671 3.99937 26.9387 3.6272 27.399 3.6272C27.8594 3.6272 28.231 3.99937 28.231 4.4604V65.5563C28.231 66.0173 27.8594 66.3895 27.399 66.3895Z" fill="black"/>
<path d="M63.3949 70H3.60513C1.61399 70 0 68.3836 0 66.3895V3.61054C0 1.61641 1.61399 0 3.60513 0H63.3949C65.386 0 67 1.61641 67 3.61054V66.3895C67 68.3836 65.386 70 63.3949 70ZM3.60513 1.6664C2.53469 1.6664 1.66391 2.53849 1.66391 3.61054V66.3895C1.66391 67.4615 2.53469 68.3336 3.60513 68.3336H63.3949C64.4653 68.3336 65.3361 67.4615 65.3361 66.3895V3.61054C65.3361 2.53849 64.4653 1.6664 63.3949 1.6664H3.60513Z" fill="black"/>
<path d="M62.1137 3.61609H4.88634C4.09876 3.61609 3.46093 4.25488 3.46093 5.04364V64.9508C3.46093 65.7396 4.09876 66.3783 4.88634 66.3783H27.3214C27.3214 66.3783 27.3713 66.3839 27.3935 66.3839C27.4156 66.3839 27.4434 66.3783 27.4656 66.3783H62.1026C62.8902 66.3783 63.528 65.7396 63.528 64.9508V5.04364C63.528 4.25488 62.8902 3.61609 62.1026 3.61609H62.1137ZM26.5671 64.7119H5.12483V48.4201H26.5671V64.7119ZM26.5671 46.7592H5.12483V24.3572H26.5671V46.7592ZM26.5671 22.6853H5.12483V5.2825H26.5671V22.6853ZM61.8752 64.7119H28.231V15.8364H61.8752V64.7119ZM61.8752 14.17H28.231V5.28805H61.8752V14.17Z" fill="black"/>
<path d="M24.7201 18.036C24.7201 16.5696 23.5276 15.3753 22.0634 15.3753H9.62848C8.16424 15.3753 6.97732 16.5585 6.97177 18.0194C6.97177 18.7081 7.23245 19.3691 7.70944 19.8635C6.69445 20.9245 6.73328 22.602 7.79263 23.6185C8.28626 24.0962 8.94628 24.3572 9.63402 24.3572H22.069C23.5332 24.3572 24.7201 23.1797 24.7257 21.7132C24.7257 21.0244 24.465 20.3634 23.988 19.8691C24.4594 19.3747 24.7257 18.7248 24.7257 18.0416L24.7201 18.036ZM9.62848 17.0362H22.0634C22.6125 17.0251 23.0673 17.4583 23.0784 18.0083C23.0895 18.5582 22.6569 19.0137 22.1078 19.0248C22.0911 19.0248 22.0745 19.0248 22.0634 19.0248H9.62848C9.07939 19.0137 8.64677 18.5582 8.65786 18.0083C8.66896 17.475 9.09603 17.0473 9.62848 17.0362ZM22.0579 22.6853H9.62293C9.07384 22.6742 8.64122 22.2187 8.65232 21.6688C8.66341 21.1355 9.09048 20.7078 9.62293 20.6967H22.0579C22.607 20.6856 23.0618 21.1189 23.0728 21.6688C23.0839 22.2187 22.6513 22.6742 22.1022 22.6853C22.0856 22.6853 22.069 22.6853 22.0579 22.6853Z" fill="black"/>
<path d="M24.1433 40.2769C25.1583 39.216 25.1195 37.5385 24.0601 36.522C23.5665 36.0443 22.9065 35.7832 22.2187 35.7832H9.78377C8.31954 35.7832 7.13262 36.9608 7.12707 38.4272C7.12707 39.116 7.38775 39.777 7.86474 40.2714C6.88303 41.2934 6.88303 42.9099 7.86474 43.9264C6.84975 44.9873 6.88858 46.6648 7.94793 47.6813C8.44156 48.1535 9.10157 48.4201 9.78932 48.4201H22.2243C23.6885 48.4201 24.8754 47.2369 24.881 45.7705C24.881 45.0817 24.6203 44.4263 24.1433 43.9264C25.125 42.9043 25.125 41.2879 24.1433 40.2714V40.2769ZM8.79652 42.1044C8.79652 41.5545 9.24023 41.1101 9.78932 41.1101H22.2243C22.7733 41.1213 23.206 41.5767 23.1949 42.1266C23.1838 42.6599 22.7567 43.0876 22.2243 43.0987H9.78932C9.24023 43.0987 8.79652 42.6543 8.79652 42.1044ZM9.78932 37.4496H22.2243C22.7733 37.4607 23.206 37.9162 23.1949 38.4661C23.1838 38.9994 22.7567 39.4271 22.2243 39.4382H9.78932C9.24023 39.4493 8.78543 39.016 8.77434 38.4661C8.76324 37.9162 9.19586 37.4607 9.74495 37.4496C9.76159 37.4496 9.77823 37.4496 9.78932 37.4496ZM22.2243 46.7537H9.78932C9.24023 46.7537 8.79652 46.3093 8.79652 45.7594C8.79652 45.2095 9.24023 44.7651 9.78932 44.7651H22.2243C22.7733 44.7651 23.2171 45.2095 23.2171 45.7594C23.2171 46.3093 22.7733 46.7537 22.2243 46.7537Z" fill="black"/>
<path d="M60.6383 31.795C60.1946 30.0786 59.0077 25.907 57.5934 24.3461C56.7614 23.3741 55.7298 22.5853 54.5762 22.0354C54.0437 21.791 53.4336 21.7965 52.9067 22.0576C52.169 21.4688 51.3537 20.7856 50.7824 20.2635C51.032 19.908 51.2539 19.5358 51.448 19.147C52.5906 16.8362 52.3853 14.8588 50.9211 13.9867C50.1668 13.5367 49.2406 13.4645 48.4252 13.7978C47.6765 14.1033 47.1163 14.7477 46.9166 15.5309C46.8057 15.9752 47.0719 16.4307 47.5156 16.5418C47.9594 16.6529 48.4142 16.3863 48.5251 15.9419C48.5972 15.6642 48.7913 15.442 49.0575 15.3365C49.3903 15.2031 49.7619 15.2365 50.067 15.4198C50.8435 15.8864 50.4885 17.3195 49.9505 18.4137C49.6898 18.9248 49.3792 19.408 49.0243 19.858C48.3975 20.6523 47.7042 21.3911 46.9555 22.0743C46.4618 21.9187 45.9294 21.9632 45.469 22.2076C45.3415 22.2742 45.1917 22.352 45.0253 22.4353C44.7536 22.5742 44.4263 22.7408 44.088 22.9297C43.7108 22.2631 43.0065 21.8576 42.2411 21.8576H41.3758C40.2832 21.1244 39.4235 20.5023 38.8744 20.0635C39.1684 19.7135 39.418 19.3358 39.6287 18.9303C40.799 16.6085 40.6326 14.7643 39.1628 13.87C38.3364 13.4034 37.3325 13.3868 36.4895 13.8256C35.652 14.2366 35.0807 15.0476 34.9864 15.9752C34.9421 16.4307 35.2748 16.8418 35.7352 16.8862C36.19 16.9306 36.6004 16.5974 36.6448 16.1363C36.6892 15.7753 36.9166 15.4642 37.2438 15.3142C37.571 15.1309 37.9704 15.1254 38.3087 15.292C39.2017 15.8364 38.4973 17.4917 38.1478 18.1804C37.865 18.6859 37.5156 19.1525 37.1051 19.5636C36.2843 20.3968 35.4024 21.1689 34.454 21.8576H33.7108C32.8067 21.8576 32.0025 22.4242 31.6974 23.2796C30.3108 27.3346 29.7174 31.6228 29.9559 35.8999C30.089 37.844 30.2665 42.6988 30.3441 54.7802V54.9302C30.3441 55.5967 30.8156 56.1689 31.47 56.2911C32.0857 56.3966 32.7124 56.4466 33.3392 56.4355C34.1822 56.4355 35.0197 56.3744 35.8572 56.2577C36.4895 56.1578 36.9776 55.6356 37.0275 54.9968L37.7485 46.1927L38.3919 55.0357C38.4307 55.6523 38.8744 56.1689 39.479 56.3022C40.9432 56.5021 42.4296 56.4855 43.8883 56.2522C44.5705 56.1689 45.0919 55.6078 45.1141 54.9191L45.1252 54.6024C45.1751 53.0916 45.286 49.6032 45.4191 45.9816C46.606 46.076 47.9704 46.126 49.4624 46.126C51.8141 46.126 54.4652 46.0094 57.1441 45.7705C57.6045 45.7316 57.9428 45.3261 57.8984 44.8651L56.9722 34.7445C56.95 34.489 57.1164 34.2612 57.366 34.2057C58.2478 34.0446 59.102 33.7669 59.9062 33.378C60.4886 33.0947 60.7936 32.4393 60.6328 31.8061L60.6383 31.795ZM49.7619 21.5744C50.2777 22.0409 50.9045 22.5631 51.4203 22.9852C50.4608 23.4518 49.3459 23.4629 48.3753 23.0186C48.7913 22.6186 49.2794 22.1298 49.7619 21.5744ZM37.743 21.2744C37.9537 21.4466 38.1978 21.6355 38.4862 21.8521H37.1107C37.3325 21.6577 37.5488 21.4633 37.743 21.2744ZM43.4668 54.5413V54.6136C42.3353 54.7746 41.1873 54.808 40.0447 54.7024L38.6748 35.9443C38.6748 35.9054 38.6803 35.8721 38.6748 35.8332L38.4973 33.1281C38.4917 33.0059 38.4529 32.8837 38.3919 32.7781L37.1495 30.5674C36.9166 30.1619 36.4063 30.0175 36.0014 30.2452C35.6021 30.4618 35.4468 30.9618 35.6631 31.3617C35.6631 31.3617 35.6686 31.3728 35.6742 31.3784L36.8223 33.4225L36.9554 35.4721L35.3913 54.6358C34.2709 54.7913 33.1395 54.808 32.0136 54.6858C31.9304 42.6155 31.7529 37.744 31.6198 35.7777C31.3979 31.7227 31.9581 27.6623 33.2726 23.824C33.3392 23.6351 33.5166 23.5129 33.7163 23.5185H42.2522C42.4518 23.5185 42.6293 23.6462 42.6959 23.8351L42.8623 24.385C43.9937 28.2455 44.4596 32.2671 44.2433 36.2831C44.1157 37.8884 43.9715 40.6713 43.7996 45.0317C43.6443 48.9644 43.5223 52.9083 43.4668 54.5413ZM57.0498 32.5615C55.9627 32.7781 55.2195 33.7835 55.3249 34.8889L56.1735 44.1708C52.6183 44.4818 49.052 44.5263 45.4912 44.3041C45.6521 40.4158 45.7852 37.8995 45.9017 36.4109C46.1291 32.406 45.702 28.3955 44.6315 24.5294C45.0364 24.2906 45.4413 24.0851 45.7907 23.9073C45.9738 23.8129 46.1346 23.7351 46.2677 23.6629C46.3731 23.6129 46.4951 23.6296 46.5839 23.7073C46.606 23.724 46.6282 23.7462 46.6504 23.7684C48.2311 25.5182 51.4092 25.4349 53.5834 23.5907C53.6666 23.5185 53.7775 23.5018 53.8773 23.5518C54.8313 24.0129 55.6743 24.6628 56.3621 25.4737C57.2828 26.4958 58.2978 29.462 58.9689 31.9838C58.3588 32.256 57.7154 32.456 57.0554 32.5726L57.0498 32.5615Z" fill="black"/>
<path d="M15.3079 64.2509C15.1138 62.9233 15.0639 61.5791 15.1526 60.2349C15.1582 59.9683 15.1471 59.7072 15.1138 59.4406C14.9252 57.7075 13.8936 56.4466 12.5459 56.3022C11.5808 56.18 10.6268 56.6132 10.0888 57.4298C9.61738 58.113 9.35116 58.924 9.32897 59.7572C9.31233 59.9794 9.30679 60.2127 9.2957 60.446C9.2957 61.0125 9.24023 61.5736 9.14594 62.129C8.89081 63.1955 8.68005 64.0343 8.51366 64.612C8.30844 65.3507 8.73551 66.1173 9.47318 66.3228C9.5952 66.3561 9.72276 66.3728 9.85033 66.3728H14.0046C14.7699 66.3728 15.3911 65.7451 15.3911 64.9786C15.3911 64.923 15.3911 64.8675 15.38 64.8119C15.3523 64.6064 15.3246 64.4287 15.3024 64.2454L15.3079 64.2509ZM13.0228 64.712C13.0228 64.0398 13.0894 63.3733 13.217 62.7178C13.3168 62.2679 13.0284 61.8235 12.5791 61.7235C12.1299 61.6236 11.6862 61.9124 11.5863 62.3623C11.431 63.1344 11.3534 63.9232 11.3534 64.712H10.2108C10.3661 64.1398 10.5492 63.4011 10.771 62.4845C10.8875 61.8291 10.9485 61.1681 10.9541 60.5071C10.9596 60.2904 10.9707 60.0794 10.9818 59.8794C10.9818 59.3628 11.1371 58.8518 11.4255 58.4241C11.6141 58.0908 11.9968 57.9075 12.3739 57.9741C12.8121 58.0186 13.339 58.5629 13.4555 59.6516C13.4776 59.8349 13.4887 60.0238 13.4832 60.2071C13.3889 61.6458 13.4444 63.09 13.6551 64.5175C13.6662 64.5842 13.6773 64.6564 13.6884 64.7231H13.0228V64.712Z" fill="black"/>
<path d="M23.1949 64.612C23.0285 64.0287 22.8177 63.1955 22.5681 62.1624C22.4683 61.5958 22.4184 61.0181 22.4128 60.446C22.4073 60.2071 22.3962 59.9794 22.3796 59.7516C22.3574 58.9184 22.0967 58.113 21.6197 57.4298C21.0817 56.6132 20.1222 56.1744 19.1516 56.3022C17.8094 56.4466 16.7833 57.7075 16.5947 59.4239C16.5614 59.6905 16.5503 59.9627 16.5559 60.2349C16.6446 61.5736 16.5947 62.9178 16.4006 64.2454C16.3728 64.4231 16.3451 64.6064 16.3174 64.8119C16.2231 65.5729 16.7666 66.2673 17.5265 66.3617C17.582 66.3672 17.6374 66.3728 17.6929 66.3728H21.8471C22.6125 66.3728 23.2337 65.7507 23.2337 64.9841C23.2337 64.8564 23.2171 64.7286 23.1838 64.6064L23.1949 64.612ZM20.3551 64.712C20.3551 63.9232 20.2775 63.1344 20.1222 62.3623C20.0224 61.9124 19.5786 61.6291 19.1294 61.7235C18.6801 61.8235 18.3973 62.2679 18.4916 62.7178C18.6247 63.3733 18.6912 64.0398 18.6857 64.712H18.0146C18.0257 64.6397 18.0368 64.5731 18.0478 64.5064C18.2531 63.0789 18.3141 61.6402 18.2198 60.2016C18.2198 60.0071 18.2198 59.8183 18.2475 59.6294C18.364 58.5518 18.8909 58.013 19.318 57.9686C19.7007 57.9019 20.0834 58.0797 20.2775 58.4185C20.5659 58.8462 20.7156 59.3517 20.7156 59.8683C20.7323 60.0738 20.7378 60.2849 20.7434 60.5015C20.7489 61.1792 20.8155 61.8513 20.9375 62.5179C21.1483 63.4066 21.3368 64.1454 21.4921 64.712H20.3496H20.3551Z" fill="black"/>
</svg>
