<svg width="58" height="61" viewBox="0 0 58 61" fill="none" xmlns="http://www.w3.org/2000/svg">
<path d="M56.0698 52.4478V2.8609C56.0698 2.0862 55.7604 1.3664 55.2284 0.854C54.6839 0.305 53.9601 0.0061 53.1744 0.0061C51.572 0.0061 50.2729 1.2871 50.2729 2.867V6.6795H35.7713C35.2393 6.6795 34.8062 7.1065 34.8062 7.6311C34.8062 8.1557 35.2393 8.5827 35.7713 8.5827H50.2729V45.7561H7.73333V8.5766H25.1302C25.6623 8.5766 26.0954 8.1496 26.0954 7.625C26.0954 6.7527 26.4913 5.9353 27.1904 5.3863C27.8957 4.8312 28.7866 4.636 29.6898 4.8434C30.6302 5.0569 31.4159 5.7767 31.7314 6.6734H28.0256C27.4935 6.6734 27.0605 7.1004 27.0605 7.625C27.0605 8.1496 27.4935 8.5766 28.0256 8.5766H31.719C31.5087 9.1744 31.1004 9.699 30.525 10.0528C29.1887 10.8763 28.3164 12.1512 28.0937 13.5603L15.1945 17.1959C14.7799 17.3118 14.4954 17.6839 14.4954 18.1109V21.9234C14.4954 22.448 14.9284 22.875 15.4605 22.875H20.2923V39.0766C20.2923 39.6012 20.7253 40.0282 21.2574 40.0282H26.0892V42.8891C26.0892 43.4137 26.5222 43.8407 27.0543 43.8407H36.7179C37.2499 43.8407 37.683 43.4137 37.683 42.8891V22.875H42.5148C43.0468 22.875 43.4799 22.448 43.4799 21.9234V18.1109C43.4799 17.6839 43.1953 17.3118 42.7808 17.1959L30.0425 13.6091C30.2404 12.8405 30.7725 12.1512 31.5396 11.6754C32.9687 10.7909 33.7792 9.3086 33.8039 7.6982C33.8039 7.6738 33.8163 7.6555 33.8163 7.6311C33.8163 7.6067 33.8039 7.5884 33.8039 7.564C33.8039 7.2163 33.773 6.8686 33.6864 6.5209C33.2843 4.7763 31.8799 3.3916 30.1043 2.989C28.6257 2.6535 27.1223 2.989 25.9654 3.8979C25.0622 4.6055 24.4683 5.5876 24.2455 6.6734H7.73333V2.8609C7.73333 2.0862 7.424 1.3664 6.89195 0.854C6.34752 0.305 5.61749 0 4.83179 0C3.23563 0 1.93024 1.281 1.93024 2.8609V52.4478C0.76096 53.3201 0 54.6865 0 56.2359C0 58.865 2.16533 61 4.83179 61C7.49824 61 9.66357 58.865 9.66357 56.2359C9.66357 54.6865 8.89643 53.3201 7.73333 52.4478V51.4718H50.2667V52.4478C49.0974 53.3201 48.3364 54.6865 48.3364 56.2359C48.3364 58.865 50.5018 61 53.1682 61C55.8347 61 58 58.865 58 56.2359C58 54.6865 57.2328 53.3201 56.0698 52.4478ZM22.2349 20.9657H35.7713V24.4122C35.7713 25.1808 35.6414 25.9372 35.3754 26.657L31.2241 38.125H22.2411V20.9657H22.2349ZM28.0318 41.9375V40.0343H31.8985C32.3068 40.0343 32.6718 39.7842 32.8079 39.3999L35.7651 31.2381V41.9375H28.0318ZM41.5682 20.9657H37.7015V20.0141C37.7015 19.4895 37.2685 19.0625 36.7364 19.0625H21.2698C20.7377 19.0625 20.3046 19.4895 20.3046 20.0141V20.9657H16.438V18.8246L29.0031 15.2866L41.5682 18.8246V20.9657ZM52.2031 2.8609C52.2031 2.3363 52.6362 1.9093 53.1682 1.9093C53.4281 1.9093 53.6631 2.0069 53.8549 2.2021C54.0343 2.3729 54.1333 2.6108 54.1333 2.8609V45.75H52.2031V2.8609ZM4.83179 1.9032C5.09163 1.9032 5.32672 2.0008 5.51851 2.196C5.69792 2.3668 5.79691 2.6047 5.79691 2.8548V45.7439H3.86667V2.8609C3.86667 2.3363 4.29973 1.9093 4.83179 1.9093V1.9032ZM4.83179 59.0907C3.22944 59.0907 1.93024 57.8097 1.93024 56.2298C1.93024 54.6499 3.22944 53.3689 4.83179 53.3689C6.43413 53.3689 7.73333 54.6499 7.73333 56.2298C7.73333 57.8097 6.43413 59.0907 4.83179 59.0907ZM4.83179 51.4657C4.49771 51.4657 4.176 51.4962 3.86667 51.5633V47.6532H5.79691V51.5633C5.48757 51.5023 5.15968 51.4657 4.83179 51.4657ZM7.73333 49.5625V47.6593H50.2667V49.5625H7.73333ZM52.2031 47.6532H54.1333V51.5633C53.824 51.5023 53.4961 51.4657 53.1682 51.4657C52.8403 51.4657 52.5124 51.4962 52.2031 51.5633V47.6532ZM53.1682 59.0907C51.5659 59.0907 50.2667 57.8097 50.2667 56.2298C50.2667 54.6499 51.5659 53.3689 53.1682 53.3689C54.7706 53.3689 56.0698 54.6499 56.0698 56.2298C56.0698 57.8097 54.7706 59.0907 53.1682 59.0907ZM31.8985 31.4516V27.6391C31.8985 25.5346 30.1662 23.8266 28.0318 23.8266C25.8974 23.8266 24.1651 25.5346 24.1651 27.6391V31.4516C24.1651 31.9762 24.5982 32.4032 25.1302 32.4032H30.9333C31.4654 32.4032 31.8985 31.9762 31.8985 31.4516ZM29.9682 30.5H26.1015V27.6391C26.1015 26.5899 26.9677 25.7359 28.0318 25.7359C29.0959 25.7359 29.962 26.5899 29.962 27.6391V30.5H29.9682Z" fill="black"/>
</svg>
