<svg width="54" height="50" viewBox="0 0 54 50" fill="none" xmlns="http://www.w3.org/2000/svg">
<path d="M15.3064 16.0771C15.5224 16.0771 15.7384 15.9967 15.9004 15.8539C16.0983 15.6843 16.2063 15.4433 16.2063 15.1844H18.9058C19.4008 15.1844 19.8057 14.7827 19.8057 14.2917H20.7056V25.0042C20.7056 26.4771 21.9203 27.6823 23.4051 27.6823H46.8012C48.286 27.6823 49.5008 26.4771 49.5008 25.0042V9.82813C49.5008 8.35516 48.286 7.15001 46.8012 7.15001H37.3528L35.4631 4.65042C34.9592 3.98089 34.1493 3.57917 33.3034 3.57917H19.8057C19.8057 3.08818 19.4008 2.68647 18.9058 2.68647H16.2063C16.2063 2.24011 15.8644 1.85625 15.4144 1.80268L1.01683 0.0083406C0.764873 -0.0273677 0.503916 0.052976 0.305949 0.222591C0.107982 0.392205 0 0.633236 0 0.892122V13.39C0 13.8364 0.341943 14.2203 0.791868 14.2738L15.1895 16.0592C15.1895 16.0592 15.2615 16.0592 15.2975 16.0592L15.3064 16.0771ZM47.701 22.326H22.5053V20.5406H47.701V22.326ZM46.8012 25.8969H23.4051C22.9102 25.8969 22.5053 25.4952 22.5053 25.0042V24.1115H47.701V25.0042C47.701 25.4952 47.2961 25.8969 46.8012 25.8969ZM47.701 9.82813V18.7552H22.5053V14.2917H23.0362L24.5749 15.8182C24.7459 15.9878 24.9708 16.0771 25.2138 16.0771H31.5127C31.7107 16.0771 31.8907 16.0592 32.0797 16.0146C32.1336 16.0057 32.1876 15.9789 32.2506 15.961C32.3676 15.9253 32.4936 15.8896 32.6106 15.845C32.6826 15.8182 32.7455 15.7736 32.8085 15.7379C32.8985 15.6843 32.9975 15.6397 33.0875 15.5772C33.1505 15.5325 33.2135 15.479 33.2765 15.4254C33.3574 15.354 33.4294 15.2915 33.5014 15.2112C33.5284 15.1844 33.5554 15.1665 33.5824 15.1397C33.6094 15.104 33.6364 15.0594 33.6634 15.0237C33.7264 14.9433 33.7894 14.8541 33.8434 14.7648C33.8794 14.6934 33.9243 14.6309 33.9603 14.5595C34.0053 14.4613 34.0503 14.3631 34.0773 14.256C34.1043 14.1845 34.1223 14.1131 34.1403 14.0417C34.1673 13.9346 34.1853 13.8275 34.1943 13.7114C34.1943 13.6311 34.2123 13.5597 34.2213 13.4793C34.2213 13.4525 34.2303 13.4347 34.2303 13.4079C34.2303 13.3186 34.2123 13.2383 34.2033 13.1579C34.2033 13.0954 34.2033 13.033 34.1943 12.9705C34.1943 12.9526 34.1853 12.9348 34.1763 12.9169C34.1673 12.8544 34.1493 12.8008 34.1313 12.7384C34.1043 12.6402 34.0773 12.542 34.0413 12.4438C34.0053 12.3545 33.9603 12.2742 33.9153 12.1849C33.8884 12.1402 33.8704 12.0867 33.8434 12.042C33.3664 11.2654 32.5206 10.7298 31.5307 10.7298H27.9313C27.8054 10.7298 27.6794 10.703 27.5714 10.6494C27.5354 10.6316 27.5084 10.6048 27.4814 10.5869C27.4094 10.5423 27.3374 10.4977 27.2835 10.4352C27.2475 10.3995 27.2295 10.3548 27.2025 10.3191C27.1575 10.2566 27.1215 10.1941 27.0945 10.1227C27.0765 10.0692 27.0675 10.0156 27.0585 9.96204C27.0495 9.89062 27.0405 9.82813 27.0495 9.74779C27.0495 9.6853 27.0675 9.63174 27.0855 9.57817C27.1035 9.52461 27.1215 9.47105 27.1485 9.42641C27.1665 9.39963 27.1845 9.37285 27.2025 9.34607C27.3824 9.10504 27.6884 8.93542 28.0303 8.93542H46.8282C47.3231 8.93542 47.728 9.33714 47.728 9.82813H47.701ZM33.3034 5.36459C33.5824 5.36459 33.8524 5.4985 34.0233 5.72167L35.1031 7.15001H27.9044C26.9235 7.15001 26.0687 7.6767 25.5917 8.46229C25.5647 8.50692 25.5377 8.55156 25.5107 8.60512C25.4658 8.68546 25.4208 8.77474 25.3848 8.86401C25.3488 8.9622 25.3218 9.0604 25.2948 9.1586C25.2768 9.22109 25.2588 9.27465 25.2498 9.33714C25.2498 9.355 25.2408 9.37285 25.2318 9.3907C25.2228 9.45319 25.2318 9.51568 25.2228 9.57817C25.2228 9.65852 25.1958 9.73886 25.1958 9.82813C25.1958 9.85491 25.1958 9.88169 25.1958 9.90847C25.1958 9.98882 25.2138 10.0602 25.2228 10.1406C25.2318 10.2477 25.2498 10.3638 25.2768 10.4709C25.2948 10.5423 25.3218 10.6137 25.3488 10.6851C25.3848 10.7923 25.4208 10.8905 25.4658 10.9887C25.5018 11.0601 25.5377 11.1315 25.5827 11.194C25.6367 11.2832 25.6997 11.3725 25.7627 11.4529C25.7897 11.4886 25.8077 11.5332 25.8437 11.5689C25.8707 11.5957 25.8977 11.6135 25.9247 11.6403C25.9967 11.7207 26.0777 11.7832 26.1496 11.8546C26.2126 11.9081 26.2666 11.9617 26.3386 12.0063C26.4286 12.0688 26.5186 12.1224 26.6176 12.167C26.6806 12.2027 26.7435 12.2474 26.8155 12.2742C26.9325 12.3277 27.0495 12.3545 27.1755 12.3902C27.2295 12.4081 27.2835 12.4348 27.3464 12.4438C27.5264 12.4795 27.7154 12.5063 27.9133 12.5063H31.4138C31.7557 12.5063 32.0617 12.6759 32.2416 12.9169C32.2596 12.9437 32.2776 12.9705 32.2956 12.9972C32.3226 13.0419 32.3406 13.0954 32.3586 13.149C32.3766 13.2026 32.3856 13.2651 32.3946 13.3186C32.3946 13.39 32.3946 13.4615 32.3856 13.5329C32.3856 13.5864 32.3676 13.64 32.3496 13.6936C32.3226 13.765 32.2866 13.8275 32.2416 13.89C32.2146 13.9257 32.1966 13.9703 32.1606 14.006C32.1066 14.0685 32.0347 14.1131 31.9627 14.1578C31.9267 14.1756 31.9087 14.2024 31.8727 14.2203C31.7557 14.2649 31.6387 14.3006 31.5127 14.3006H25.5827L24.044 12.7741C23.873 12.6045 23.6481 12.5152 23.4051 12.5152H19.8057V5.36459H33.3034ZM18.006 4.47188V13.399H16.2063V4.47188H18.006ZM1.8087 1.90981L14.4066 3.47205V14.1667L1.8087 12.6045V1.90981Z" fill="black"/>
<path d="M39.6024 16.0771H45.0015C45.4964 16.0771 45.9014 15.6754 45.9014 15.1844V11.6135C45.9014 11.1226 45.4964 10.7208 45.0015 10.7208H39.6024C39.1075 10.7208 38.7025 11.1226 38.7025 11.6135V15.1844C38.7025 15.6754 39.1075 16.0771 39.6024 16.0771ZM40.5023 12.5063H44.1017V14.2917H40.5023V12.5063Z" fill="black"/>
<path d="M51.3004 29.4677H8.10765C6.6229 29.4677 5.4081 30.6729 5.4081 32.1458V49.1073C5.4081 49.5983 5.81303 50 6.30795 50H53.1002C53.5951 50 54 49.5983 54 49.1073V32.1458C54 30.6729 52.7852 29.4677 51.3004 29.4677ZM8.10765 31.2531H51.3004C51.7954 31.2531 52.2003 31.6548 52.2003 32.1458V33.9313H7.2078V32.1458C7.2078 31.6548 7.61273 31.2531 8.10765 31.2531ZM52.2003 35.7167V44.6438H7.2078V35.7167H52.2003ZM7.2078 48.2146V46.4292H52.2003V48.2146H7.2078Z" fill="black"/>
</svg>
