<svg width="53" height="60" viewBox="0 0 53 60" fill="none" xmlns="http://www.w3.org/2000/svg">
<path d="M40.2186 17.0012C37.1116 17.0012 34.2613 18.1056 32.0465 19.9504L16.7872 11.1857C16.524 11.0325 16.1966 11.0325 15.9334 11.1857L0.430111 20.0781C0.166909 20.2313 0 20.5122 0 20.8122V38.6099C0 38.9163 0.160489 39.1908 0.430111 39.344L15.927 48.2428C16.0618 48.3194 16.2094 48.3577 16.3507 48.3577C16.4919 48.3577 16.646 48.3194 16.7743 48.2428L32.0337 39.478C34.2484 41.3165 37.0987 42.4273 40.2058 42.4273C47.2545 42.4273 52.9936 36.7267 52.9936 29.711C52.9936 22.6954 47.2609 16.9948 40.2058 16.9948L40.2186 17.0012ZM9.75133 31.4282L7.60078 30.1962L7.543 25.6383L9.69356 26.8703L9.75133 31.4282ZM8.37754 24.1509L22.1668 16.2351L24.3302 17.48L10.5409 25.3957L8.37754 24.1509ZM26.0378 18.463L30.1399 20.8186L16.3507 28.7343L12.2485 26.3788L26.0378 18.463ZM17.2045 30.2026L29.1513 23.3402C28.0535 25.2169 27.4244 27.3874 27.4244 29.711C27.4244 32.9986 28.6827 35.9926 30.7498 38.2524L17.2045 46.0277V30.1962V30.2026ZM16.3507 12.9029L20.4528 15.2584L6.66352 23.1742L2.56141 20.8186L16.3507 12.9029ZM1.70761 22.2932L5.81613 24.6552L5.89317 30.7069C5.89317 31.0069 6.06008 31.2814 6.31686 31.4346L10.1943 33.6561C10.3291 33.7327 10.4767 33.771 10.618 33.771C10.7592 33.771 10.9133 33.7327 11.0481 33.6561C11.3113 33.5029 11.4718 33.2157 11.4718 32.9093L11.4076 27.8662L15.4904 30.209V46.0404L1.70761 38.1183V22.2868V22.2932ZM40.2122 40.7292C34.1008 40.7292 29.1384 35.7883 29.1384 29.7174C29.1384 23.6466 34.1072 18.7056 40.2122 18.7056C46.3172 18.7056 51.286 23.6466 51.286 29.7174C51.286 35.7883 46.3172 40.7292 40.2122 40.7292ZM40.2122 20.1419C34.9032 20.1419 30.5893 24.4381 30.5893 29.711C30.5893 34.9839 34.9032 39.2801 40.2122 39.2801C45.5212 39.2801 49.8352 34.9903 49.8352 29.711C49.8352 24.4318 45.5148 20.1419 40.2122 20.1419ZM40.2122 37.5821C35.8469 37.5821 32.2969 34.0519 32.2969 29.711C32.2969 25.3702 35.8469 21.84 40.2122 21.84C44.5775 21.84 48.1275 25.3702 48.1275 29.711C48.1275 34.0519 44.5775 37.5821 40.2122 37.5821ZM13.8021 9.80041C19.3807 7.00437 24.9657 6.50006 30.4095 8.30025L29.2283 10.3303C29.0678 10.6048 29.0807 10.9559 29.254 11.2176C29.4145 11.4602 29.6841 11.6006 29.9666 11.6006C29.9987 11.6006 30.0308 11.6006 30.0629 11.6006L39.673 10.5154C39.9426 10.4835 40.1801 10.3303 40.3149 10.0941C40.4497 9.85786 40.4626 9.57698 40.3599 9.32802L36.5017 0.512189C36.3733 0.218541 36.0908 0.0206476 35.7699 0.00149663C35.4489 -0.0176543 35.1407 0.148321 34.9803 0.422818L33.6578 2.70178C26.4679 0.0461824 19.4577 1.96766 12.8199 8.43431C12.5182 8.72796 12.4732 9.19396 12.7236 9.53868C12.9675 9.8834 13.4233 9.99192 13.8021 9.80041ZM33.7028 4.54666C34.1008 4.70625 34.5566 4.55304 34.7684 4.18279L35.6094 2.7337L38.3313 8.95139L31.5522 9.71742L32.3932 8.26833C32.5216 8.05129 32.5408 7.79594 32.4574 7.55975C32.3739 7.32355 32.1942 7.13843 31.9566 7.04906C29.3118 6.04044 26.6412 5.54251 23.9514 5.54251C21.9742 5.54251 19.9906 5.81701 18.0005 6.35962C23.104 2.91883 28.2718 2.33153 33.6899 4.55304L33.7028 4.54666ZM39.1979 50.2026C33.6193 52.9986 28.0343 53.5029 22.5905 51.7027L23.7717 49.6727C23.9322 49.3982 23.9193 49.0471 23.746 48.7854C23.5663 48.5173 23.2517 48.3769 22.9307 48.4088L13.3206 49.494C13.051 49.5259 12.8135 49.6791 12.6787 49.9153C12.5438 50.1515 12.531 50.4324 12.6337 50.6814L16.4983 59.4972C16.6267 59.7908 16.9092 59.9887 17.2301 60.0079C17.243 60.0079 17.2622 60.0079 17.2751 60.0079C17.5768 60.0079 17.8593 59.8483 18.0133 59.5802L19.3358 57.3012C26.5257 59.9568 33.5359 58.0353 40.1737 51.5687C40.4754 51.275 40.5204 50.809 40.27 50.4643C40.0196 50.1196 39.5638 50.0111 39.1915 50.2026H39.1979ZM19.2972 55.4563C18.8992 55.2904 18.4434 55.45 18.2316 55.8202L17.3906 57.2693L14.6687 51.0516L21.4478 50.2856L20.6068 51.7347C20.4784 51.9517 20.4592 52.2071 20.5426 52.4432C20.6261 52.6794 20.8058 52.8646 21.0434 52.9539C25.6334 54.6967 30.3068 54.9265 34.9931 53.6498C29.8895 57.0905 24.7218 57.6778 19.3037 55.4563H19.2972Z" fill="black"/>
<path d="M37.6187 33.7456C37.4197 33.7456 37.2528 33.586 37.2528 33.3817V26.0341C37.2528 25.8362 37.4133 25.6702 37.6187 25.6702H40.7001C42.4912 25.6702 43.6082 26.6916 43.6082 28.3322C43.6082 29.9728 42.4912 30.9942 40.7001 30.9942H39.3905V33.3881C39.3905 33.586 39.23 33.752 39.0246 33.752H37.6123L37.6187 33.7456ZM40.6359 29.0344C41.387 29.0344 41.4769 28.6323 41.4769 28.3322C41.4769 28.0322 41.387 27.63 40.6359 27.63H39.3969V29.0344H40.6359Z" fill="black"/>
</svg>
