<svg width="57" height="68" viewBox="0 0 57 68" fill="none" xmlns="http://www.w3.org/2000/svg">
<path d="M27.7083 3.95349C27.7083 3.5186 28.0646 3.16279 28.5 3.16279C28.9354 3.16279 29.2917 3.5186 29.2917 3.95349C29.2917 4.38837 28.9354 4.74419 28.5 4.74419C28.0646 4.74419 27.7083 4.38837 27.7083 3.95349ZM26.9167 51.3953C26.9167 53.5777 25.1433 55.3488 22.9583 55.3488C20.7733 55.3488 19 53.5777 19 51.3953C19 49.213 20.7733 47.4419 22.9583 47.4419C25.1433 47.4419 26.9167 49.213 26.9167 51.3953ZM25.3333 51.3953C25.3333 50.0828 24.2725 49.0233 22.9583 49.0233C21.6442 49.0233 20.5833 50.0828 20.5833 51.3953C20.5833 52.7079 21.6442 53.7674 22.9583 53.7674C24.2725 53.7674 25.3333 52.7079 25.3333 51.3953ZM34.8333 51.3953C34.8333 51.8302 35.1896 52.186 35.625 52.186H52.25C52.6854 52.186 53.0417 51.8302 53.0417 51.3953C53.0417 50.9605 52.6854 50.6046 52.25 50.6046H35.625C35.1896 50.6046 34.8333 50.9605 34.8333 51.3953ZM48.2917 53.7674H35.625C35.1896 53.7674 34.8333 54.1233 34.8333 54.5581C34.8333 54.993 35.1896 55.3488 35.625 55.3488H48.2917C48.7271 55.3488 49.0833 54.993 49.0833 54.5581C49.0833 54.1233 48.7271 53.7674 48.2917 53.7674ZM34.0417 37.1628C37.2004 37.1628 39.9475 39.3056 40.7075 42.3656L41.135 44.0893C41.2379 44.5163 40.9846 44.9433 40.5571 45.046C40.4937 45.0619 40.4304 45.0698 40.3671 45.0698H27.7004C27.265 45.0698 26.9088 44.714 26.9088 44.2791C26.9088 44.2158 26.9167 44.1526 26.9325 44.0893L27.36 42.3656C28.12 39.3056 30.875 37.1628 34.0337 37.1628H34.0417ZM34.0417 38.7442C31.6112 38.7442 29.4975 40.3967 28.9037 42.7451L28.7217 43.4884H39.3617L39.1796 42.7451C38.5938 40.3888 36.4721 38.7363 34.0417 38.7442ZM34.0417 27.6744C36.2267 27.6744 38 29.4456 38 31.6279C38 33.8102 36.2267 35.5814 34.0417 35.5814C31.8567 35.5814 30.0833 33.8102 30.0833 31.6279C30.0833 29.4456 31.8567 27.6744 34.0417 27.6744ZM34.0417 29.2558C32.7275 29.2558 31.6667 30.3153 31.6667 31.6279C31.6667 32.9405 32.7275 34 34.0417 34C35.3558 34 36.4167 32.9405 36.4167 31.6279C36.4167 30.3153 35.3558 29.2558 34.0417 29.2558ZM29.2917 25.3023H16.625C16.1896 25.3023 15.8333 24.9465 15.8333 24.5116C15.8333 24.4484 15.8413 24.3851 15.8571 24.3219L16.2846 22.5981C17.2029 18.9214 20.9396 16.6837 24.6208 17.6009C27.0829 18.2177 29.0067 20.1391 29.6242 22.5981L30.0517 24.3219C30.1546 24.7488 29.9012 25.1758 29.4737 25.2786C29.4104 25.2944 29.3471 25.3023 29.2838 25.3023H29.2917ZM28.2783 23.7209L28.0963 22.9777C27.3838 20.147 24.5179 18.4233 21.6758 19.1349C19.7758 19.6093 18.2954 21.0879 17.8283 22.9777L17.6462 23.7209H28.2862H28.2783ZM19 11.8605C19 9.67814 20.7733 7.90698 22.9583 7.90698C25.1433 7.90698 26.9167 9.67814 26.9167 11.8605C26.9167 14.0428 25.1433 15.814 22.9583 15.814C20.7733 15.814 19 14.0428 19 11.8605ZM20.5833 11.8605C20.5833 13.173 21.6442 14.2326 22.9583 14.2326C24.2725 14.2326 25.3333 13.173 25.3333 11.8605C25.3333 10.5479 24.2725 9.48837 22.9583 9.48837C21.6442 9.48837 20.5833 10.5479 20.5833 11.8605ZM22.1667 31.6279C22.1667 31.193 21.8104 30.8372 21.375 30.8372H4.75C4.31458 30.8372 3.95833 31.193 3.95833 31.6279C3.95833 32.0628 4.31458 32.4186 4.75 32.4186H21.375C21.8104 32.4186 22.1667 32.0628 22.1667 31.6279ZM22.1667 34.7907C22.1667 34.3558 21.8104 34 21.375 34H8.70833C8.27292 34 7.91667 34.3558 7.91667 34.7907C7.91667 35.2256 8.27292 35.5814 8.70833 35.5814H21.375C21.8104 35.5814 22.1667 35.2256 22.1667 34.7907ZM48.2917 18.9767V47.4419H54.625C55.9392 47.4419 57 48.5014 57 49.814V56.1395C57 57.4521 55.9392 58.5116 54.625 58.5116H48.2917V64.8372C48.2917 66.5846 46.8746 68 45.125 68H11.875C10.1254 68 8.70833 66.5846 8.70833 64.8372V38.7442H2.375C1.06083 38.7442 0 37.6847 0 36.3721V30.0465C0 28.734 1.06083 27.6744 2.375 27.6744H8.70833V3.16279C8.70833 1.41535 10.1254 0 11.875 0H45.125C46.8746 0 48.2917 1.41535 48.2917 3.16279V7.90698H54.625C55.9392 7.90698 57 8.96651 57 10.2791V16.6047C57 17.9172 55.9392 18.9767 54.625 18.9767H48.2917ZM54.625 9.48837H33.25C32.8146 9.48837 32.4583 9.84419 32.4583 10.2791V19.1586L35.2213 17.506C35.3479 17.4349 35.4825 17.3953 35.625 17.3953H54.625C55.0604 17.3953 55.4167 17.0395 55.4167 16.6047V10.2791C55.4167 9.84419 55.0604 9.48837 54.625 9.48837ZM43.5417 18.9767H35.8467L32.0783 21.2381C31.8329 21.3884 31.5321 21.3884 31.2787 21.246C31.0333 21.1037 30.875 20.8428 30.875 20.5581V10.2791C30.875 8.96651 31.9358 7.90698 33.25 7.90698H43.5417V4.74419H32.3792C31.9438 6.88698 29.8538 8.26279 27.7083 7.82791C26.1488 7.51163 24.9375 6.29395 24.6208 4.74419H13.4583V27.6744H23.75C25.0642 27.6744 26.125 28.734 26.125 30.0465V40.3256C26.125 40.6102 25.9746 40.8712 25.7213 41.0135C25.4758 41.1558 25.1671 41.1558 24.9217 41.0056L21.1533 38.7442H13.4583V63.2558H16.0075L16.2925 62.133C17.2108 58.4563 20.9475 56.2186 24.6287 57.1358C27.0908 57.7526 29.0146 59.674 29.6321 62.133L29.9092 63.2558H43.5417V58.5116H35.8467L32.0783 60.773C31.8329 60.9233 31.5242 60.9233 31.2787 60.7809C31.0333 60.6386 30.875 60.3777 30.875 60.093V49.814C30.875 48.5014 31.9358 47.4419 33.25 47.4419H43.5417V18.9767ZM28.0963 62.5126C27.3838 59.6819 24.5179 57.9581 21.6758 58.6698C19.7758 59.1442 18.2954 60.6228 17.8283 62.5126L17.6462 63.2558H28.2862L28.1042 62.5126H28.0963ZM10.2917 27.6744H11.875V3.95349C11.875 3.5186 12.2312 3.16279 12.6667 3.16279H25.3333C25.7687 3.16279 26.125 3.5186 26.125 3.95349C26.125 4.58605 26.3783 5.18698 26.8217 5.63767C27.7638 6.52326 29.2442 6.52326 30.1863 5.62977C30.6296 5.18698 30.875 4.58605 30.875 3.95349C30.875 3.5186 31.2313 3.16279 31.6667 3.16279H44.3333C44.7687 3.16279 45.125 3.5186 45.125 3.95349V7.90698H46.7083V3.16279C46.7083 2.29302 45.9958 1.5814 45.125 1.5814H11.875C11.0042 1.5814 10.2917 2.29302 10.2917 3.16279V27.6744ZM2.375 37.1628H21.375C21.5175 37.1628 21.66 37.2023 21.7787 37.2735L24.5417 38.926V30.0465C24.5417 29.6116 24.1854 29.2558 23.75 29.2558H2.375C1.93958 29.2558 1.58333 29.6116 1.58333 30.0465V36.3721C1.58333 36.807 1.93958 37.1628 2.375 37.1628ZM46.7083 58.5116H45.125V64.0465C45.125 64.4814 44.7687 64.8372 44.3333 64.8372H12.6667C12.2312 64.8372 11.875 64.4814 11.875 64.0465V38.7442H10.2917V64.8372C10.2917 65.707 11.0042 66.4186 11.875 66.4186H45.125C45.9958 66.4186 46.7083 65.707 46.7083 64.8372V58.5116ZM54.625 49.0233H33.25C32.8146 49.0233 32.4583 49.3791 32.4583 49.814V58.6935L35.2213 57.0409C35.3479 56.9698 35.4825 56.9302 35.625 56.9302H54.625C55.0604 56.9302 55.4167 56.5744 55.4167 56.1395V49.814C55.4167 49.3791 55.0604 49.0233 54.625 49.0233ZM46.7083 18.9767H45.125V47.4419H46.7083V18.9767ZM34.8333 11.8605C34.8333 12.2953 35.1896 12.6512 35.625 12.6512H52.25C52.6854 12.6512 53.0417 12.2953 53.0417 11.8605C53.0417 11.4256 52.6854 11.0698 52.25 11.0698H35.625C35.1896 11.0698 34.8333 11.4256 34.8333 11.8605ZM48.2917 14.2326H35.625C35.1896 14.2326 34.8333 14.5884 34.8333 15.0233C34.8333 15.4581 35.1896 15.814 35.625 15.814H48.2917C48.7271 15.814 49.0833 15.4581 49.0833 15.0233C49.0833 14.5884 48.7271 14.2326 48.2917 14.2326Z" fill="black"/>
</svg>
