<svg width="70" height="54" viewBox="0 0 70 54" fill="none" xmlns="http://www.w3.org/2000/svg">
<path d="M12.925 27.6147C12.6476 27.4827 12.5173 27.1673 12.6204 26.88C12.9555 25.9529 13.3415 25.0276 13.768 24.1314C15.2719 20.9716 17.2823 19.6516 19.4107 18.2553C19.6124 18.1232 19.8142 17.991 20.0166 17.8556C20.189 17.7411 20.4127 17.725 20.6006 17.8144L26.3681 20.5595C26.556 20.6489 26.6853 20.8331 26.7044 21.0388C26.7277 21.2816 26.7524 21.5214 26.7767 21.7602C27.0344 24.2941 27.2781 26.686 25.7739 29.8465C25.3477 30.742 24.8736 31.6255 24.3643 32.4705C24.2072 32.7321 23.8795 32.8295 23.602 32.6974L12.9232 27.6148L12.925 27.6147ZM23.62 31.3994C24.0068 30.7278 24.3712 30.0346 24.7032 29.337C26.0665 26.4727 25.8491 24.3422 25.5979 21.8746C25.5847 21.7439 25.5712 21.6121 25.5577 21.4803L20.3985 19.0248C20.2873 19.0981 20.1776 19.1703 20.0672 19.2422C17.9936 20.6034 16.203 21.7782 14.8398 24.6424C14.5074 25.3408 14.1992 26.0607 13.9222 26.7837L23.62 31.3994Z" fill="black"/>
<path d="M20.0953 18.8796C19.8001 18.7391 19.6734 18.3857 19.813 18.0924L22.5416 12.3595C22.6812 12.0662 23.0354 11.9417 23.3306 12.0822L29.098 14.8273C29.3932 14.9678 29.52 15.3211 29.3804 15.6145L26.6518 21.3474C26.5122 21.6407 26.158 21.7652 25.8628 21.6247L20.0953 18.8796ZM25.833 20.3048L28.0549 15.6365L23.3589 13.4013L21.1369 18.0697L25.833 20.3048Z" fill="black"/>
<path d="M20.8222 17.3524C20.527 17.2119 20.4003 16.8585 20.5399 16.5652C20.6795 16.2718 21.0337 16.1474 21.3289 16.2879L27.0963 19.0329C27.3915 19.1734 27.5183 19.5268 27.3787 19.8201C27.2391 20.1135 26.8849 20.238 26.5897 20.0974L20.8222 17.3524Z" fill="black"/>
<path d="M27.7629 15.4975C27.4677 15.357 27.341 15.0036 27.4806 14.7103L28.3917 12.7959C28.5314 12.5025 28.8855 12.3781 29.1808 12.5186C29.476 12.6591 29.6027 13.0125 29.4631 13.3058L28.5519 15.2202C28.4123 15.5135 28.0581 15.638 27.7629 15.4975Z" fill="black"/>
<path d="M23.6521 13.5409C23.3569 13.4004 23.2301 13.047 23.3697 12.7537L24.2809 10.8393C24.4205 10.546 24.7747 10.4215 25.0699 10.562C25.3651 10.7025 25.4919 11.0559 25.3523 11.3492L24.4411 13.2636C24.3015 13.5569 23.9473 13.6814 23.6521 13.5409Z" fill="black"/>
<path d="M17.1987 24.968C17.1588 24.949 17.1202 24.9252 17.0851 24.8977C16.8281 24.6942 16.784 24.3216 16.9867 24.0673L21.2975 18.652C21.4692 18.4361 21.7653 18.3688 22.0177 18.4888C22.0569 18.5075 22.0947 18.5309 22.1293 18.5573C22.3871 18.7612 22.4312 19.1338 22.2285 19.3881L17.9177 24.8035C17.7457 25.0201 17.4506 25.087 17.1998 24.9676L17.1987 24.968Z" fill="black"/>
<path d="M20.0813 26.34C19.7861 26.1995 19.6594 25.8461 19.799 25.5528L22.6966 19.4648C22.8362 19.1715 23.1904 19.047 23.4856 19.1875C23.7808 19.328 23.9076 19.6814 23.7679 19.9747L20.8703 26.0627C20.7307 26.356 20.3765 26.4805 20.0813 26.34Z" fill="black"/>
<path d="M22.9639 27.712C22.7131 27.5926 22.5794 27.3207 22.6386 27.0513L24.123 20.2907C24.1925 19.9731 24.5092 19.773 24.8285 19.8438C24.8719 19.8537 24.914 19.8683 24.9539 19.8873C25.2018 20.0053 25.339 20.2833 25.2807 20.5487L23.7963 27.3093C23.7268 27.627 23.4101 27.827 23.0908 27.7562C23.0467 27.746 23.0039 27.731 22.9639 27.712Z" fill="black"/>
<path d="M56.9118 30.4195L44.7776 24.6442L44.0778 26.1145L56.2119 31.8899L56.9118 30.4195Z" fill="black"/>
<path d="M60.3334 36.9588L42.872 28.6479L42.1721 30.1183L59.6335 38.4291L60.3334 36.9588Z" fill="black"/>
<path d="M49.4332 37.3614L40.7025 33.206L40.0027 34.6763L48.7334 38.8318L49.4332 37.3614Z" fill="black"/>
<path d="M65.4308 36.871L69.8436 27.5997L67.5292 26.4982L68.992 19.2701L39.7038 13.2536L12.6963 0.399225L9.52857 7.05475L7.01878 6.53919L4.98218 16.6068L0.569467 25.8781L2.88384 26.9797L1.4214 34.207L30.7096 40.2235L57.7171 53.0779L60.8848 46.4223L63.3946 46.9379L65.4308 36.871ZM7.88889 10.4998L8.30066 8.46581L8.8074 8.56994L7.88889 10.4998ZM67.0639 20.5373L66.005 25.7727L45.8504 16.18L67.0639 20.5373ZM3.34877 32.9413L4.40766 27.7058L24.5623 37.2985L3.34877 32.9413ZM56.9364 50.9047L34.6147 40.2805L35.5447 38.3264L34.065 37.6221L33.1349 39.5762L2.74837 25.1135L13.4763 2.57388L43.8628 17.0365L42.9996 18.8502L44.4793 19.5545L45.3426 17.7408L67.6643 28.365L56.9364 50.9047ZM62.5238 42.9788L62.112 45.0128L61.6053 44.9086L62.5238 42.9788Z" fill="black"/>
<path d="M43.593 21.4167L42.1132 20.7124L40.947 23.1627L42.4268 23.867L43.593 21.4167Z" fill="black"/>
<path d="M41.5884 25.6285L40.1086 24.9242L38.9424 27.3745L40.4221 28.0789L41.5884 25.6285Z" fill="black"/>
<path d="M39.5355 29.9418L38.0557 29.2375L36.8894 31.6878L38.3692 32.3921L39.5355 29.9418Z" fill="black"/>
<path d="M37.5977 34.0132L36.1179 33.3089L34.9516 35.7592L36.4314 36.4635L37.5977 34.0132Z" fill="black"/>
</svg>
