<svg width="70" height="75" viewBox="0 0 70 75" fill="none" xmlns="http://www.w3.org/2000/svg">
<g clip-path="url(#clip0_904_9308)">
<rect width="70" height="75" fill="white"/>
<path d="M56.8484 52.7306V8.8791C56.8484 6.66727 55.0421 4.86547 52.8249 4.86547H44.4364C43.9095 1.54677 41.0304 -1 37.5588 -1H30.2895C26.818 -1 23.9388 1.54677 23.412 4.86547H15.0235C12.8062 4.86547 11 6.66727 11 8.8791V64.4558C11 66.6695 12.8062 68.4694 15.0235 68.4694H40.4592C40.6097 68.6773 40.7602 68.8794 40.9146 69.0777C40.5943 69.4588 40.3917 69.942 40.3917 70.4752V73.8151C40.3917 75.0221 41.3739 76 42.5819 76H56.0359C57.2459 76 58.2262 75.0202 58.2262 73.8151V70.4752C58.2262 70.0248 58.0892 69.6051 57.8518 69.2567C58.3748 68.7062 58.6469 68.1903 58.9267 67.478C58.9749 67.351 59 67.2162 59 67.0815V55.5526C59 54.2629 58.1027 53.1695 56.8445 52.7345H56.8484V52.7306ZM43.0875 68.2884C41.8428 66.8197 40.6425 64.7965 39.475 62.833C37.9834 60.317 36.4434 57.7202 34.724 56.1359C34.6855 56.1013 34.6237 56.0435 34.6507 55.8703C34.6932 55.5796 34.9595 55.1734 35.3917 54.9578C36.0903 54.6094 37.0436 54.8077 37.4295 55.3794L39.0389 57.7799C39.3091 58.1803 39.805 58.3554 40.2681 58.2188C40.7294 58.0782 41.0439 57.6547 41.0439 57.1754V43.9892C41.0439 43.5407 41.5823 43.1479 42.1959 43.1479C42.8096 43.1479 43.348 43.5407 43.348 43.9892V50.9769C43.348 51.5795 43.8381 52.0684 44.4421 52.0684C45.0462 52.0684 45.5363 51.5795 45.5363 50.9769C45.5363 50.5284 46.0747 50.1357 46.6883 50.1357C47.302 50.1357 47.8404 50.5284 47.8404 50.9769V53.2657C47.8404 53.8683 48.3305 54.3572 48.9345 54.3572C49.5386 54.3572 50.0287 53.8683 50.0287 53.2657C50.0287 52.8172 50.5671 52.4245 51.1807 52.4245C51.7944 52.4245 52.3328 52.8172 52.3328 53.2657V55.5507C52.3328 56.1532 52.8229 56.6422 53.4269 56.6422C54.031 56.6422 54.5211 56.1532 54.5211 55.5507C54.5211 55.1022 55.0595 54.7095 55.6732 54.7095C56.2868 54.7095 56.8252 55.1022 56.8252 55.5507V66.8716C56.6226 67.3741 56.4373 67.6917 55.6732 68.2884H43.0875ZM50.1927 50.384C50.1194 50.4033 50.0422 50.4168 49.9708 50.4418C49.691 49.0269 48.3248 47.9527 46.6826 47.9527C46.2792 47.9527 45.8894 48.0163 45.5305 48.1375V43.9872C45.5305 42.3202 44.033 40.9631 42.1921 40.9631C40.3511 40.9631 38.8537 42.3202 38.8537 43.9872V53.6854C37.7537 52.5689 35.9224 52.2551 34.4134 53.004C33.3906 53.5122 32.6303 54.517 32.4817 55.5604C32.3621 56.392 32.638 57.185 33.2382 57.7356C33.8692 58.3189 34.4963 59.1043 35.1177 59.9917H17.6576V13.3355H50.1869V50.384H50.1927ZM30.2915 1.18295H37.5607C39.8224 1.18295 41.7174 2.7576 42.2152 4.86547H25.637C26.1348 2.7576 28.0298 1.18295 30.2915 1.18295ZM15.0254 66.2864C14.0142 66.2864 13.1902 65.4645 13.1902 64.4558V8.8791C13.1902 7.8704 14.0142 7.04843 15.0254 7.04843H52.8287C53.8399 7.04843 54.6639 7.8704 54.6639 8.8791V52.6767C54.6002 52.6959 54.5288 52.7056 54.4651 52.7287C54.2567 51.6815 53.452 50.821 52.3791 50.4437L52.3752 12.2459C52.3752 11.6434 51.8851 11.1544 51.2811 11.1544H16.5634C15.9594 11.1544 15.4692 11.6434 15.4692 12.2459V61.087C15.4692 61.6895 15.9594 62.1785 16.5634 62.1785H36.5322C36.8892 62.7618 37.2404 63.3566 37.5916 63.9456C38.0567 64.7272 38.5256 65.5164 39.0022 66.2884H15.0215H15.0254V66.2864ZM56.0398 73.8209L42.58 73.817L42.5857 70.4695L56.0456 70.4733L56.0398 73.8209ZM21.0153 25.8807H28.3579C28.9619 25.8807 29.452 25.3917 29.452 24.7892V17.4646C29.452 16.8621 28.9619 16.3731 28.3579 16.3731H21.0153C20.4113 16.3731 19.9211 16.8621 19.9211 17.4646V24.7892C19.9211 25.3917 20.4113 25.8807 21.0153 25.8807ZM22.1075 18.5561H27.2618V23.6977H22.1075V18.5561ZM32.4566 21.1279C32.4566 20.5253 32.9468 20.0364 33.5508 20.0364H46.8369C47.4409 20.0364 47.9311 20.5253 47.9311 21.1279C47.9311 21.7304 47.4409 22.2193 46.8369 22.2193H33.5508C32.9468 22.2193 32.4566 21.7304 32.4566 21.1279ZM21.0153 38.1776H28.3579C28.9619 38.1776 29.452 37.6887 29.452 37.0861V29.7615C29.452 29.159 28.9619 28.67 28.3579 28.67H21.0153C20.4113 28.67 19.9211 29.159 19.9211 29.7615V37.0861C19.9211 37.6887 20.4113 38.1776 21.0153 38.1776ZM22.1075 30.853H27.2618V35.9946H22.1075V30.853ZM32.4566 33.4248C32.4566 32.8222 32.9468 32.3333 33.5508 32.3333H46.8369C47.4409 32.3333 47.9311 32.8222 47.9311 33.4248C47.9311 34.0273 47.4409 34.5162 46.8369 34.5162H33.5508C32.9468 34.5162 32.4566 34.0273 32.4566 33.4248ZM21.0153 50.4745H28.3579C28.9619 50.4745 29.452 49.9856 29.452 49.383V42.0584C29.452 41.4559 28.9619 40.9669 28.3579 40.9669H21.0153C20.4113 40.9669 19.9211 41.4559 19.9211 42.0584V49.383C19.9211 49.9856 20.4113 50.4745 21.0153 50.4745ZM22.1075 43.1499H27.2618V48.2915H22.1075V43.1499Z" fill="#010101"/>
</g>
<defs>
<clipPath id="clip0_904_9308">
<rect width="70" height="75" fill="white"/>
</clipPath>
</defs>
</svg>
