<svg width="76" height="70" viewBox="0 0 76 70" fill="none" xmlns="http://www.w3.org/2000/svg">
<path d="M31.3298 56.2689C31.6289 56.7874 31.4511 57.4436 30.9336 57.7433L26.7455 60.1655C26.5757 60.2627 26.3898 60.3113 26.2119 60.3113C25.84 60.3113 25.4762 60.1169 25.274 59.7685C24.9749 59.2501 25.1528 58.5939 25.6702 58.2942L29.8583 55.872C30.3757 55.5723 31.0306 55.7505 31.3298 56.2689ZM74.2294 64.4752C73.0489 65.6579 71.4966 66.2493 69.9443 66.2493C68.3919 66.2493 66.8396 65.6579 65.6591 64.4752L64.026 62.8388L51.8902 69.8623C51.7204 69.9595 51.5345 70.0081 51.3566 70.0081C51.1787 70.0081 50.9847 69.9595 50.823 69.8623L34.6043 60.4814L18.3855 69.8623C18.2157 69.9595 18.0298 70.0081 17.8519 70.0081C17.674 70.0081 17.48 69.9595 17.3183 69.8623L0.533617 60.1655C0.202128 59.9711 0 59.6146 0 59.2339V39.8484C0 39.4595 0.202128 39.1112 0.533617 38.9168L16.7523 29.5359V10.7742C16.7523 10.3854 16.9545 10.037 17.286 9.84261L34.0464 0.145816C34.3779 -0.0486055 34.7902 -0.0486055 35.1217 0.145816L51.874 9.84261C52.2055 10.037 52.4077 10.3935 52.4077 10.7742V20.6168C60.3391 22.4233 66.3383 29.3901 66.6779 37.7989L68.6264 38.9249C68.9579 39.1193 69.16 39.4758 69.16 39.8565V50.8251L74.2132 55.8882C76.5821 58.2537 76.5821 62.1097 74.2132 64.4833L74.2294 64.4752ZM67.0174 40.4722L66.6294 40.2453C66.4272 42.4731 65.8209 44.5955 64.8911 46.5235L67.0255 48.6622V40.4722H67.0174ZM48.3409 22.3018C39.3987 22.3018 32.1302 29.5845 32.1302 38.5441C32.1302 47.5038 39.3987 54.7865 48.3409 54.7865C57.283 54.7865 64.5515 47.5038 64.5515 38.5441C64.5515 29.5845 57.283 22.3018 48.3409 22.3018ZM33.5047 49.3589C32.203 47.5767 31.2247 45.5595 30.6345 43.3723L18.9111 50.1528V67.0432L33.5128 58.5939V49.3508L33.5047 49.3589ZM18.903 12.6374V29.5278L30.1574 36.041C30.5779 32.9626 31.7583 30.1273 33.5047 27.7213V21.0786L27.3034 17.4899L27.3681 22.715C27.3681 23.3063 26.8991 23.8005 26.3008 23.8086H26.2847C25.6945 23.8086 25.2174 23.3306 25.2094 22.7393L25.1285 16.2342L18.8949 12.6293L18.903 12.6374ZM49.1817 10.7661L42.9562 7.16121L28.3545 15.6105L34.58 19.2154L49.1817 10.7661ZM17.8277 31.3991L3.22596 39.8484L9.45149 43.4533L24.0532 35.004L17.8277 31.3991ZM11.6021 44.6927L17.8277 48.2976L30.1736 41.1526C30.0523 40.302 29.9877 39.4271 29.9877 38.5441C29.9877 38.5036 29.9877 38.4712 29.9877 38.4307L26.2038 36.2435L11.6021 44.6927ZM50.257 20.2442V12.6374L35.6553 21.0867V25.2668C38.954 22.0993 43.4251 20.1551 48.3409 20.1551C48.9877 20.1551 49.6264 20.1875 50.257 20.2523V20.2442ZM19.9783 10.7742L26.2038 14.3791L40.8055 5.92987L34.58 2.32496L19.9783 10.7742ZM2.15064 58.6101L16.7523 67.0594V50.169L10.5511 46.5803L10.6157 51.8053C10.6157 52.3967 10.1468 52.8909 9.54851 52.899H9.53234C8.94213 52.899 8.46511 52.421 8.45702 51.8296L8.37617 45.3246L2.14255 41.7197V58.6182L2.15064 58.6101ZM35.6553 58.6101L50.257 67.0594V56.8441C49.6264 56.9089 48.9877 56.9413 48.3409 56.9413C43.4251 56.9413 38.954 54.989 35.6553 51.8296V58.6182V58.6101ZM62.4413 61.2591L56.3128 55.1186C55.0838 55.71 53.7821 56.1717 52.4157 56.4796V67.0594L62.4413 61.2591ZM72.7013 57.4112L63.7834 48.4759C62.3523 50.6955 60.4685 52.583 58.2532 54.0169L67.1711 62.9522C68.6992 64.4752 71.1813 64.4833 72.7013 62.9522C74.2294 61.4211 74.2294 58.9422 72.7013 57.4112ZM48.3409 24.4243C56.1106 24.4243 62.4332 30.7592 62.4332 38.5441C62.4332 46.3291 56.1106 52.664 48.3409 52.664C40.5711 52.664 34.2485 46.3291 34.2485 38.5441C34.2485 30.7592 40.5711 24.4243 48.3409 24.4243ZM48.3409 26.5791C41.7596 26.5791 36.3992 31.9419 36.3992 38.5441C36.3992 45.1464 41.7515 50.5092 48.3409 50.5092C54.9302 50.5092 60.2826 45.1464 60.2826 38.5441C60.2826 31.9419 54.9302 26.5791 48.3409 26.5791ZM43.7889 43.105C43.9991 43.3156 44.274 43.4209 44.5489 43.4209C44.8238 43.4209 45.0987 43.3156 45.3089 43.105L52.8847 35.5144C53.3051 35.0932 53.3051 34.4127 52.8847 33.9914C52.4643 33.5702 51.7851 33.5702 51.3647 33.9914L43.7889 41.582C43.3685 42.0032 43.3685 42.6837 43.7889 43.105ZM44.7349 36.0977C45.0098 36.0977 45.2847 35.9924 45.4949 35.7817L45.5838 35.6926C46.0043 35.2714 46.0043 34.5909 45.5838 34.1697C45.1634 33.7484 44.4843 33.7484 44.0638 34.1697L43.9749 34.2588C43.5545 34.68 43.5545 35.3605 43.9749 35.7817C44.1851 35.9924 44.46 36.0977 44.743 36.0977H44.7349ZM51.1787 41.3066L51.0898 41.3957C50.6694 41.8169 50.6694 42.4974 51.0898 42.9186C51.3 43.1293 51.5749 43.2346 51.8498 43.2346C52.1247 43.2346 52.3996 43.1293 52.6179 42.9186L52.7068 42.8295C53.1272 42.4083 53.1272 41.7278 52.7068 41.3066C52.2864 40.8853 51.6072 40.8853 51.1868 41.3066H51.1787Z" fill="black"/>
</svg>
