<svg width="56" height="70" viewBox="0 0 56 70" fill="none" xmlns="http://www.w3.org/2000/svg">
<path d="M16.3225 28.0074L22.531 31.5894C22.6875 31.6787 22.8589 31.7234 23.0229 31.7234C23.1869 31.7234 23.3657 31.6787 23.5148 31.5894L29.7233 28.0074C30.0289 27.8287 30.2152 27.5011 30.2152 27.1511V19.9947C30.2152 19.6372 30.0289 19.317 29.7233 19.1383L23.5148 15.5564C23.2092 15.3777 22.8291 15.3777 22.5235 15.5564L16.315 19.1383C16.0094 19.317 15.8231 19.6447 15.8231 19.9947V27.1511C15.8231 27.5085 16.0094 27.8287 16.315 28.0074H16.3225ZM17.8131 21.7074L22.0316 24.1426V29.0128L17.8131 26.5777V21.7074ZM24.0216 29.0128V24.1426L28.2401 21.7074V26.5777L24.0216 29.0128ZM23.0229 17.5521L27.2414 19.9872L23.0229 22.4223L18.8044 19.9872L23.0229 17.5521ZM9.28667 36.9436C9.28667 36.4 9.73386 35.9532 10.2779 35.9532H24.9756C25.5197 35.9532 25.9669 36.4 25.9669 36.9436C25.9669 37.4872 25.5197 37.934 24.9756 37.934H10.2854C9.74131 37.934 9.29412 37.4872 9.29412 36.9436H9.28667ZM29.5444 33.6372L31.4524 35.5436L35.0672 31.9319C35.4548 31.5447 36.0809 31.5447 36.4684 31.9319C36.856 32.3191 36.856 32.9447 36.4684 33.3319L32.153 37.6436C31.9593 37.8372 31.7058 37.934 31.4524 37.934C31.199 37.934 30.9456 37.8372 30.7518 37.6436L28.1432 35.0372C27.7557 34.65 27.7557 34.0245 28.1432 33.6372C28.5308 33.25 29.1569 33.25 29.5444 33.6372ZM9.28667 46.1702C9.28667 45.6266 9.73386 45.1798 10.2779 45.1798H24.9756C25.5197 45.1798 25.9669 45.6266 25.9669 46.1702C25.9669 46.7138 25.5197 47.1606 24.9756 47.1606H10.2854C9.74131 47.1606 9.29412 46.7138 9.29412 46.1702H9.28667ZM53.73 18.2521C51.5686 17.0085 48.796 17.7457 47.5439 19.9053L46.0458 22.4968V9.87447C46.0458 7.7 44.2719 5.92766 42.0956 5.92766H33.5393C33.0549 2.58404 30.1705 0 26.6899 0H19.3559C15.8753 0 12.9909 2.58404 12.5064 5.92766H3.95019C1.77386 5.92766 0 7.7 0 9.87447V66.0532C0 68.2277 1.77386 70 3.95019 70H42.103C44.2794 70 46.0532 68.2277 46.0532 66.0532V40.6L55.3921 24.433C56.6442 22.2734 55.8989 19.5032 53.7375 18.2521H53.73ZM39.554 33.7415L31.1618 48.2628C31.0872 48.3968 31.0425 48.5383 31.0276 48.6872L30.5208 55.8138H10.2854C9.74131 55.8138 9.29412 56.2606 9.29412 56.8043C9.29412 57.3479 9.74131 57.7947 10.2854 57.7947H31.4524C31.5419 57.7947 31.6239 57.7798 31.7133 57.7574C31.7357 57.7574 31.7506 57.7425 31.7729 57.7425C31.8549 57.7128 31.9369 57.6755 32.0114 57.6308L38.7044 53.1106C38.8311 53.0287 38.928 52.917 39.01 52.783L39.554 51.8372V61.6521H6.49918V14.2681H39.554V33.7415ZM37.4001 51.5989L32.5853 54.8457L32.9952 49.0596L45.4495 27.5085L49.8543 30.0479L37.4001 51.5989ZM46.4333 25.7883L47.3203 24.2543L51.7251 26.7936L50.8382 28.3277L46.4333 25.7883ZM19.3634 1.98085H26.6973C29.0823 1.98085 31.0798 3.67872 31.5419 5.92766H14.5263C14.9884 3.67872 16.9858 1.98085 19.3708 1.98085H19.3634ZM44.0632 66.0532C44.0632 67.133 43.1837 68.0191 42.0956 68.0191H3.95019C2.86948 68.0191 1.99 67.1404 1.99 66.0532V9.87447C1.99 8.79468 2.86948 7.91596 3.95019 7.91596H42.103C43.1837 7.91596 44.0707 8.79468 44.0707 9.87447V25.9372L41.544 30.3085V13.2777C41.544 12.734 41.0969 12.2872 40.5528 12.2872H5.5079C4.96382 12.2872 4.51663 12.734 4.51663 13.2851V62.6574C4.51663 63.2011 4.96382 63.6479 5.5079 63.6479H40.5453C41.0894 63.6479 41.5366 63.2011 41.5366 62.6574V48.4191L44.0632 44.0479V66.0681V66.0532ZM53.6778 23.4426L52.7313 25.0809L48.3264 22.5415L49.273 20.9032C49.9736 19.6894 51.5313 19.2723 52.7462 19.9723C53.961 20.6723 54.3784 22.2287 53.6778 23.4426Z" fill="black"/>
</svg>
