<svg width="70" height="70" viewBox="0 0 70 70" fill="none" xmlns="http://www.w3.org/2000/svg">
<path d="M40.1891 53.6319L46.7998 50.0053C47.3011 49.7298 47.9355 49.8936 48.2254 50.3702C48.5152 50.8468 48.3428 51.45 47.8416 51.7255L41.2308 55.3521C41.0664 55.4415 40.8862 55.4862 40.7139 55.4862C40.3536 55.4862 40.0011 55.3074 39.8053 54.9872C39.5155 54.5106 39.6878 53.9074 40.1891 53.6319ZM69.9922 6.75425V43.1915C69.9922 44.7926 68.6215 46.1032 66.9296 46.1032H54.9692V54.4957C54.9692 54.8532 54.7734 55.1734 54.4444 55.3521L28.0016 69.866C27.8371 69.9553 27.6569 70 27.4846 70C27.3123 70 27.1243 69.9553 26.9677 69.866L0.524785 55.3521C0.203648 55.1734 0 54.8457 0 54.4957V25.4681C0 25.1106 0.195815 24.7904 0.524785 24.6117L26.9677 10.0904C27.2888 9.9117 27.6883 9.9117 28.0094 10.0904L37.8706 15.5043V6.75425C37.8706 5.15319 39.2414 3.84255 40.9332 3.84255H46.4552C46.9408 1.64574 48.9851 0 51.4367 0H56.4418C58.8855 0 60.9377 1.65319 61.4233 3.84255H66.9453C68.6293 3.84255 70.0078 5.14574 70.0078 6.75425H69.9922ZM48.6326 3.84255H59.238C58.815 2.75532 57.7185 1.98085 56.4339 1.98085H51.4289C50.1443 1.98085 49.0478 2.75532 48.6248 3.84255H48.6326ZM37.8706 24.5372L19.6598 34.5383L27.4924 38.8351L37.8706 33.1383V24.5447V24.5372ZM16.5425 35.1117L12.0309 32.6394L12.1405 40.9947L16.6521 43.467L16.5425 35.1117ZM37.4085 17.5298L13.0491 30.8968L17.5764 33.384L37.8706 22.2436V17.7904L37.4085 17.5372V17.5298ZM3.13304 25.4606L10.9656 29.7574L35.3251 16.3904L27.4924 12.0936L3.13304 25.4606ZM2.09131 53.9149L26.4507 67.2819V40.5404L18.6416 36.2585L18.7591 45.1798C18.7591 45.5372 18.5633 45.8723 18.2421 46.0511C18.0777 46.1404 17.8975 46.1851 17.7174 46.1851C17.5372 46.1851 17.3571 46.1404 17.2004 46.0511L10.5897 42.417C10.2685 42.2457 10.0727 41.9181 10.0727 41.5681L9.93958 31.4702L2.09914 27.166V53.9074L2.09131 53.9149ZM52.8936 46.0957H40.9332C39.2492 46.0957 37.8706 44.7926 37.8706 43.184V35.417L28.5342 40.5404V67.2819L52.8936 53.9149V46.0957ZM67.9087 6.74681C67.9087 6.24043 67.4779 5.8234 66.9374 5.8234H40.9332C40.4006 5.8234 39.962 6.24043 39.962 6.74681V43.184C39.962 43.6904 40.3927 44.1074 40.9332 44.1074H66.9374C67.4701 44.1074 67.9087 43.6979 67.9087 43.184V6.74681ZM66.1699 9.97128V39.9745C66.1699 40.5181 65.6999 40.9649 65.1281 40.9649H42.7504C42.1786 40.9649 41.7086 40.5181 41.7086 39.9745V9.97128C41.7086 9.42766 42.1707 8.98085 42.7504 8.98085H65.1281C65.6999 8.98085 66.1699 9.42766 66.1699 9.97128ZM64.0785 10.9617H43.7843V38.984H64.0785V10.9617ZM53.9353 16.8149H61.8384C62.4102 16.8149 62.8802 16.3681 62.8802 15.8245C62.8802 15.2809 62.4102 14.834 61.8384 14.834H53.9353C53.3635 14.834 52.8936 15.2809 52.8936 15.8245C52.8936 16.3681 53.3635 16.8149 53.9353 16.8149ZM46.2515 17.2394C46.3925 17.4628 46.6197 17.634 46.886 17.7011C46.9721 17.7234 47.0661 17.7383 47.1523 17.7383C47.3324 17.7383 47.5126 17.6936 47.6692 17.6043L50.8884 15.8394C51.3897 15.5638 51.562 14.9606 51.2722 14.484C50.9824 14.0074 50.348 13.8436 49.8467 14.1191L47.5361 15.3851L46.933 14.3947C46.6432 13.9181 46.0087 13.7543 45.5074 14.0298C45.0062 14.3053 44.8338 14.9085 45.1236 15.3851L46.2437 17.2319L46.2515 17.2394ZM53.9353 22.9138H61.8384C62.4102 22.9138 62.8802 22.467 62.8802 21.9234C62.8802 21.3798 62.4102 20.933 61.8384 20.933H53.9353C53.3635 20.933 52.8936 21.3798 52.8936 21.9234C52.8936 22.467 53.3635 22.9138 53.9353 22.9138ZM46.2515 23.3383C46.3925 23.5617 46.6197 23.733 46.886 23.8C46.9721 23.8223 47.0661 23.8372 47.1523 23.8372C47.3324 23.8372 47.5126 23.7926 47.6692 23.7032L50.8884 21.9383C51.3897 21.6628 51.562 21.0596 51.2722 20.583C50.9824 20.1064 50.348 19.9426 49.8467 20.2181L47.5361 21.484L46.933 20.4936C46.6432 20.017 46.0087 19.8532 45.5074 20.1287C45.0062 20.4043 44.8338 21.0074 45.1236 21.484L46.2437 23.3309L46.2515 23.3383ZM53.9353 29.0128H61.8384C62.4102 29.0128 62.8802 28.566 62.8802 28.0223C62.8802 27.4787 62.4102 27.0319 61.8384 27.0319H53.9353C53.3635 27.0319 52.8936 27.4787 52.8936 28.0223C52.8936 28.566 53.3635 29.0128 53.9353 29.0128ZM46.2515 29.4372C46.3925 29.6606 46.6197 29.8319 46.886 29.8989C46.9721 29.9213 47.0661 29.9362 47.1523 29.9362C47.3324 29.9362 47.5126 29.8915 47.6692 29.8021L50.8884 28.0372C51.3897 27.7617 51.562 27.1585 51.2722 26.6819C50.9824 26.2053 50.348 26.0415 49.8467 26.317L47.5361 27.583L46.933 26.5926C46.6432 26.116 46.0087 25.9521 45.5074 26.2277C45.0062 26.5032 44.8338 27.1064 45.1236 27.583L46.2437 29.4298L46.2515 29.4372ZM53.9353 35.1043H61.8384C62.4102 35.1043 62.8802 34.6574 62.8802 34.1138C62.8802 33.5702 62.4102 33.1234 61.8384 33.1234H53.9353C53.3635 33.1234 52.8936 33.5702 52.8936 34.1138C52.8936 34.6574 53.3635 35.1043 53.9353 35.1043ZM46.2515 35.5362C46.3925 35.7596 46.6197 35.9309 46.886 35.9979C46.9721 36.0202 47.0661 36.0351 47.1523 36.0351C47.3324 36.0351 47.5126 35.9904 47.6692 35.9011L50.8884 34.1362C51.3897 33.8606 51.562 33.2574 51.2722 32.7808C50.9824 32.3043 50.348 32.1404 49.8467 32.416L47.5361 33.6819L46.933 32.6915C46.6432 32.2149 46.0087 32.0511 45.5074 32.3266C45.0062 32.6021 44.8338 33.2053 45.1236 33.6819L46.2437 35.5287L46.2515 35.5362Z" fill="black"/>
</svg>
