<svg width="70" height="70" viewBox="0 0 70 70" fill="none" xmlns="http://www.w3.org/2000/svg">
<path d="M69.4955 15.1692L43.3716 0.134043C43.0654 -0.0446809 42.6845 -0.0446809 42.3783 0.134043L16.2618 15.1692C15.9556 15.3479 15.7689 15.6755 15.7689 16.0255V34.2777H15.0221C13.4761 34.2777 12.214 35.5362 12.214 37.0777V38.5596C10.3917 39.1702 8.69644 40.1457 7.2476 41.4192L5.95559 40.6745C5.30585 40.3021 4.55156 40.2053 3.82713 40.3915C3.10271 40.5851 2.49778 41.0468 2.12437 41.6947L0.376799 44.7032C-0.3999 46.0362 0.0631317 47.7564 1.40742 48.5234L2.69196 49.2681C2.50525 50.2064 2.40817 51.167 2.40817 52.1277C2.40817 53.0883 2.50525 54.0489 2.69196 54.9872L1.40742 55.7319C0.75768 56.1043 0.294648 56.7074 0.100473 57.4372C-0.0937018 58.1596 0.00338558 58.9117 0.376799 59.5596L2.1169 62.5681C2.49032 63.216 3.09524 63.6777 3.81967 63.8713C4.55156 64.0649 5.29838 63.9681 5.94812 63.5957L7.24013 62.8511C8.68897 64.1245 10.3768 65.1074 12.2065 65.7106V67.1926C12.2065 68.734 13.4612 69.9926 15.0146 69.9926H18.5023C20.0482 69.9926 21.3103 68.7415 21.3103 67.1926V65.7106C23.1326 65.1 24.8279 64.1245 26.2767 62.8511L27.5687 63.5957C28.913 64.3702 30.6307 63.9085 31.4 62.5681L33.1475 59.5596C33.6927 58.6138 33.6106 57.4745 33.043 56.6181L42.3932 62.0021C42.5501 62.0915 42.7218 62.1362 42.8861 62.1362C43.0504 62.1362 43.2297 62.0915 43.379 62.0021L69.503 46.967C69.8092 46.7883 69.9959 46.4606 69.9959 46.1106V16.033C70.0034 15.6755 69.8167 15.3553 69.5105 15.1766L69.4955 15.1692ZM42.8787 29.9213L35.0743 25.4234L59.2043 11.5277L67.0086 16.0255L42.8787 29.9213ZM57.2177 10.3883L33.0878 24.284L28.5471 21.6702L52.677 7.77447L57.2177 10.3883ZM42.8787 2.13723L50.683 6.63511L26.5531 20.5309L18.7487 16.033L42.8787 2.13723ZM17.748 17.7532L29.3163 24.4181L32.5799 26.2947L41.8779 31.6489V59.433L31.0639 53.2074C31.0938 52.8574 31.1087 52.5 31.1087 52.15C31.1087 51.1894 31.0116 50.2287 30.8249 49.2904L32.1094 48.5457C32.7592 48.1734 33.2222 47.5702 33.4164 46.8479C33.6106 46.1255 33.5135 45.3734 33.1326 44.7255L32.4604 43.5638C32.6173 43.5713 32.7816 43.5862 32.9384 43.5862C34.8876 43.5862 36.8294 42.8489 38.3156 41.367C40.1602 39.5277 40.922 36.9138 40.3619 34.3745C40.2797 34.017 40.0183 33.734 39.6673 33.6372C39.3163 33.533 38.9429 33.6372 38.6815 33.8904L35.1191 37.4426L32.6023 36.3404L31.5045 33.8309L35.0669 30.2787C35.3208 30.0255 35.4179 29.6457 35.3208 29.2957C35.2162 28.9457 34.9324 28.6851 34.5814 28.6032C32.0348 28.0447 29.4059 28.8043 27.5687 30.6436C26.1348 32.0734 25.3432 33.9798 25.3432 36.0053C25.3432 36.3628 25.3805 36.7202 25.4253 37.0702L23.0728 39.3043C22.4978 39.0213 21.9153 38.7681 21.3103 38.567V37.0851C21.3103 35.5436 20.0557 34.2851 18.5023 34.2851H17.7554V17.7457L17.748 17.7532ZM23.9168 52.1426C23.9168 56.0819 20.7054 59.284 16.7547 59.284C12.804 59.284 9.59263 56.0819 9.59263 52.1426C9.59263 48.2032 12.804 45.0011 16.7547 45.0011C16.8518 45.0011 16.9489 45.0011 17.046 45.016L13.2446 48.6202C12.3036 49.5138 11.7808 50.7351 11.7584 52.0532C11.7435 53.3936 12.2737 54.7117 13.2222 55.6574C14.1557 56.5883 15.4477 57.117 16.7846 57.117H16.8443C18.1662 57.1021 19.391 56.5734 20.2872 55.6351L23.9018 51.8447C23.9018 51.9415 23.9168 52.0383 23.9168 52.1351V52.1426ZM18.8533 54.2723C18.3305 54.816 17.6135 55.1287 16.8294 55.1362C16.0153 55.1362 15.2162 54.8234 14.6412 54.2575C14.0661 53.6915 13.745 52.8947 13.7599 52.0755C13.7674 51.2936 14.0811 50.5787 14.6262 50.0574L26.0601 39.2149C26.4336 40.0043 26.9339 40.734 27.5687 41.367C28.2035 42 28.9504 42.5064 29.7345 42.8713L18.8533 54.2798V54.2723ZM29.4134 34.0021L30.9444 37.4872C31.0415 37.7181 31.2282 37.8968 31.4597 38.0011L34.9548 39.5277C35.3283 39.6915 35.7689 39.6096 36.0601 39.3191L38.4948 36.8915C38.3081 38.0383 37.7704 39.1106 36.919 39.9596C34.7308 42.1415 31.1684 42.1415 28.9802 39.9596C26.792 37.7777 26.792 34.2255 28.9802 32.0436C29.8316 31.1947 30.9145 30.6585 32.0572 30.4723L29.6225 32.9C29.3312 33.1904 29.2491 33.6223 29.4134 34.0021ZM31.4149 58.5766L29.6673 61.5851C29.4433 61.9723 28.9429 62.1064 28.5471 61.883L26.6203 60.7734C26.2319 60.55 25.739 60.617 25.4253 60.9223C23.9242 62.3968 22.0572 63.4692 20.0407 64.0277C19.6076 64.1468 19.3088 64.534 19.3088 64.9883V67.2075C19.3088 67.6617 18.9429 68.0191 18.4948 68.0191H15.0071C14.559 68.0191 14.1931 67.6543 14.1931 67.2075V64.9883C14.1931 64.5415 13.8944 64.1543 13.4612 64.0277C11.4373 63.4766 9.57769 62.3968 8.07657 60.9223C7.75544 60.6096 7.27 60.5426 6.88165 60.766L4.95484 61.8755C4.76814 61.9798 4.55156 62.0096 4.33498 61.9574C4.1184 61.9053 3.94663 61.7638 3.84207 61.5777L2.10197 58.5692C1.99741 58.383 1.96754 58.1596 2.01982 57.9511C2.07209 57.7351 2.21399 57.5638 2.4007 57.4596L4.32004 56.35C4.70839 56.1266 4.8951 55.6723 4.78307 55.2404C4.52168 54.2351 4.38725 53.1926 4.38725 52.1351C4.38725 51.0777 4.52168 50.0426 4.78307 49.0298C4.8951 48.5979 4.70092 48.1436 4.32004 47.9202L2.4007 46.8106C2.01235 46.5872 1.87792 46.0883 2.10197 45.6936L3.84954 42.6851C3.95409 42.4989 4.13333 42.3649 4.34244 42.3053C4.55902 42.2532 4.7756 42.2755 4.96231 42.3872L6.88912 43.4968C7.27747 43.7202 7.77038 43.6532 8.08404 43.3479C9.58516 41.8734 11.4448 40.8011 13.4687 40.2426C13.9018 40.1234 14.2005 39.7362 14.2005 39.2819V37.0628C14.2005 36.616 14.5665 36.2511 15.0146 36.2511H18.5023C18.9504 36.2511 19.3163 36.616 19.3163 37.0628V39.2819C19.3163 39.7287 19.615 40.116 20.0482 40.2426C20.5486 40.3766 21.0489 40.5553 21.5269 40.7564L18.8906 43.2585C18.1961 43.0947 17.4791 43.0053 16.7547 43.0053C11.7061 43.0053 7.60607 47.1011 7.60607 52.1277C7.60607 57.1543 11.7136 61.25 16.7547 61.25C21.7958 61.25 25.9033 57.1543 25.9033 52.1277C25.9033 51.4053 25.8137 50.6979 25.6494 50.0053L30.7876 44.6213L31.4149 45.7011C31.5194 45.8872 31.5493 46.1032 31.497 46.3192C31.4448 46.5351 31.3029 46.7064 31.1162 46.8106L29.1893 47.9202C28.801 48.1436 28.6143 48.5979 28.7263 49.0298C28.9877 50.0351 29.1221 51.0777 29.1221 52.1351C29.1221 53.1926 28.9877 54.2277 28.7263 55.2404C28.6143 55.6723 28.8085 56.1266 29.1893 56.35L31.1087 57.4596C31.497 57.683 31.6315 58.1819 31.4074 58.5766H31.4149ZM43.8719 59.433V31.6489L68.0019 17.7532V45.5372L43.8719 59.433ZM63.3342 41.8585C63.6105 42.3351 63.4463 42.9383 62.9683 43.2138L56.4336 46.9745C56.2767 47.0638 56.105 47.1085 55.9407 47.1085C55.5971 47.1085 55.261 46.9298 55.0743 46.6096C54.798 46.133 54.9623 45.5298 55.4403 45.2543L61.975 41.4936C62.453 41.2181 63.0579 41.3819 63.3342 41.8585Z" fill="black"/>
</svg>
