<svg width="28" height="25" viewBox="0 0 28 25" fill="none" xmlns="http://www.w3.org/2000/svg">
<path d="M24.9668 9.23168V9.1657C24.9668 9.13272 24.9668 9.09973 24.9335 9.09973C24.9335 9.06674 24.9003 9.03375 24.9003 9.03375C24.9003 9.00077 24.867 9.00077 24.867 8.96778C24.867 8.93479 24.8338 8.93479 24.8338 8.9018C24.8338 8.86881 24.8005 8.86881 24.7673 8.83583L24.7008 8.76985C24.6786 8.74786 24.6565 8.73686 24.6343 8.73686L24.5678 8.67089H24.5346C24.5346 8.67089 24.5013 8.67089 24.5013 8.6379C24.4681 8.6379 24.4348 8.60491 24.4348 8.60491C24.4016 8.60491 24.3684 8.57192 24.3684 8.57192C24.3351 8.57192 24.3019 8.57192 24.3019 8.53894H23.5705L24.1356 6.26278C24.2021 6.03187 24.1689 5.83394 24.0359 5.63601C23.9029 5.43809 23.7367 5.30614 23.504 5.27315L18.0851 4.01961C17.6529 3.92065 17.2207 4.18455 17.0878 4.61339L16.988 5.00925L15.2593 4.44846C15.0266 4.38248 14.7939 4.38248 14.5944 4.51443L12.7992 5.50406C12.1011 5.07522 11.3032 4.84431 10.4056 4.84431C8.17819 4.84431 6.31649 6.46071 5.91755 8.57192H4.92021L4.58777 5.20717C4.55452 4.77833 4.18883 4.44846 3.75665 4.44846H0.831117C0.365692 4.44846 0 4.81132 0 5.27315C0 5.73498 0.365692 6.09784 0.831117 6.09784H3.02527L3.35771 9.46259L4.18883 19.062L3.69016 20.0846C3.55718 20.0517 3.45745 20.0517 3.35771 20.0517C1.99468 20.0517 0.864362 21.1732 0.864362 22.5257C0.864362 23.8782 1.99468 24.9998 3.35771 24.9998C4.45479 24.9998 5.35239 24.3071 5.71809 23.3504H17.6529C17.9854 24.3071 18.9162 24.9998 20.0133 24.9998C21.3763 24.9998 22.5066 23.8782 22.5066 22.5257C22.5066 21.1732 21.3431 20.0517 19.9801 20.0517C18.883 20.0517 17.9854 20.7444 17.6197 21.701H5.71809C5.58511 21.3712 5.41888 21.0743 5.15293 20.8104L5.55186 20.0517H18.3178C18.617 20.0517 18.883 19.8867 19.0492 19.6558L24.867 9.75948C24.867 9.75948 24.867 9.7265 24.9003 9.7265C24.9003 9.69351 24.9335 9.66052 24.9335 9.62753C24.9335 9.59454 24.9335 9.56156 24.9668 9.56156C24.9668 9.52857 24.9668 9.49558 25 9.49558V9.33064C24.9668 9.26467 24.9668 9.23168 24.9668 9.23168ZM3.35771 23.3504C2.89229 23.3504 2.5266 22.9876 2.5266 22.5257C2.5266 22.0639 2.89229 21.701 3.35771 21.701C3.82314 21.701 4.18883 22.0639 4.18883 22.5257C4.18883 22.9876 3.82314 23.3504 3.35771 23.3504ZM19.9801 21.701C20.4455 21.701 20.8112 22.0639 20.8112 22.5257C20.8112 22.9876 20.4455 23.3504 19.9801 23.3504C19.5146 23.3504 19.1489 22.9876 19.1489 22.5257C19.1489 22.0639 19.5146 21.701 19.9801 21.701ZM18.484 5.76797L22.3072 6.65863L21.8085 8.50595H17.7194L18.484 5.76797ZM16.6556 10.1553H17.8856L17.1875 11.8047H14.3617L14.7939 10.1553H16.6556ZM15.0931 6.09784L16.5559 6.59266L16.0239 8.50595H14.9269C14.7939 7.81321 14.5279 7.18644 14.129 6.65863L15.0931 6.09784ZM10.4388 6.46071C11.7686 6.46071 12.8657 7.31839 13.2314 8.53894H7.64628C7.97872 7.31839 9.10904 6.46071 10.4388 6.46071ZM7.57979 18.4023H5.78457L5.6516 16.7529H7.71277L7.57979 18.4023ZM7.84575 15.1035H5.48537L5.35239 13.4541H7.97872L7.84575 15.1035ZM8.14495 11.8047H5.25266L5.11968 10.1553H8.27793L8.14495 11.8047ZM11.004 18.4023H9.24202L9.375 16.7529H11.4362L11.004 18.4023ZM11.8351 15.1035H9.50798L9.64096 13.4541H12.234L11.8351 15.1035ZM9.80718 11.8047L9.94016 10.1553H13.0984L12.6662 11.8047H9.80718ZM14.4282 18.4023H12.7327L13.1649 16.7529H15.1596L14.4282 18.4023ZM13.5638 15.1035L13.996 13.4541H16.5226L15.8245 15.1035H13.5638ZM17.8524 18.4023H16.2566L16.9548 16.7529H18.8165L17.8524 18.4023ZM19.7806 15.1035H17.6197L18.3178 13.4541H20.7447L19.7806 15.1035ZM21.7088 11.8047H19.016L19.7141 10.1553H22.7061L21.7088 11.8047Z" fill="black"/>
<circle cx="24" cy="4" r="4" fill="#F6AE24"/>
</svg>
