<svg width="45" height="33" viewBox="0 0 45 33" fill="none" xmlns="http://www.w3.org/2000/svg">
<path d="M42.6603 24.3064L24.8953 14.0712C24.5505 13.874 24.2057 13.7485 23.8428 13.641C23.8428 13.5693 23.8791 13.5155 23.8791 13.4438V12.2249C23.8791 12.1174 23.9154 11.1853 24.8953 10.7192C25.0223 10.6654 28.1616 9.17767 28.1616 5.48512C28.1616 5.2521 28.1616 3.11902 26.6192 1.54162C25.5848 0.519894 24.2057 6.9267e-05 22.5544 6.9267e-05C22.3367 6.9267e-05 20.3043 -0.0357807 18.6712 1.52369C17.3828 2.74259 16.7295 4.53509 16.7295 6.86535C16.7295 7.60027 17.3465 8.20972 18.0905 8.20972C18.8345 8.20972 19.4515 7.60027 19.4515 6.86535C19.4515 5.3238 19.8144 4.1766 20.5221 3.47752C21.3568 2.67089 22.4093 2.67089 22.5 2.68882C23.4436 2.68882 24.1513 2.92184 24.6231 3.38789C25.4034 4.15867 25.4034 5.3955 25.4034 5.43135C25.4034 7.4031 23.7702 8.22765 23.7158 8.2635C21.5927 9.24937 21.1028 11.239 21.139 12.2249V13.4259C21.139 13.4259 21.1753 13.5514 21.1753 13.6231C20.8124 13.7306 20.4495 13.874 20.1229 14.0533L2.35786 24.3064C-1.81574 26.7083 -0.0918622 33 4.73499 33H40.265C45.0919 33 46.8157 26.6904 42.6421 24.3064H42.6603ZM42.2066 28.8593C42.1159 29.1999 41.6985 30.3292 40.265 30.3292H4.73499C3.3196 30.3292 2.90224 29.2178 2.79336 28.8593C2.70263 28.5188 2.48488 27.3357 3.71881 26.6366L21.4838 16.4014C21.7923 16.2222 22.1371 16.1326 22.5 16.1326C22.8629 16.1326 23.2077 16.2222 23.5162 16.4014L41.2812 26.6366C42.5151 27.3536 42.2974 28.5188 42.2066 28.8593Z" fill="#040000"/>
</svg>
