<svg width="70" height="30" viewBox="0 0 70 30" fill="none" xmlns="http://www.w3.org/2000/svg">
<path d="M35.5202 9.84294L33.2003 12.1479V24.4139C33.2003 25.2805 33.8755 26.0192 34.7478 26.0506C35.62 26.0819 36.4135 25.3562 36.4135 24.4556V11.2656C36.4135 10.6417 36.0509 10.1014 35.5254 9.84033C35.5254 9.84033 35.5228 9.84033 35.5202 9.84033V9.84294Z" fill="#F6AE24"/>
<path d="M55.5318 13.5235C55.5318 13.5235 55.5239 13.5235 55.5213 13.5235C55.5213 13.5235 55.5213 13.5235 55.5187 13.5235C55.5187 13.5235 55.5134 13.5235 55.5108 13.5235C54.586 13.5235 53.8346 14.2701 53.8346 15.1889C53.8346 16.1078 54.586 16.8543 55.5108 16.8543C56.4356 16.8543 57.187 16.1078 57.187 15.1889C57.187 14.2701 56.4487 13.5366 55.5318 13.5235Z" fill="#1F1F1F"/>
<path d="M12.6081 13.4269C11.7621 13.4269 10.9766 13.5914 10.2777 13.9151C9.7917 14.1396 9.35295 14.4319 8.97463 14.7817C8.63834 14.4267 8.24426 14.1343 7.80288 13.9125C7.15921 13.5888 6.43147 13.4269 5.63279 13.4269C4.97861 13.4269 4.35858 13.5418 3.78847 13.7689C3.49422 13.8864 3.21573 14.0325 2.95826 14.2022C2.90309 14.1265 2.84004 14.0534 2.77173 13.9882C2.4696 13.6984 2.08602 13.5522 1.62888 13.5522C1.17175 13.5522 0.785543 13.7036 0.475529 13.9986C0.160261 14.3014 0 14.693 0 15.168V24.4295C0 24.8863 0.157634 25.2753 0.467648 25.5807C0.777661 25.8887 1.16912 26.0453 1.62888 26.0453C2.08865 26.0453 2.50113 25.8861 2.80589 25.5755C3.10539 25.2675 3.25777 24.8837 3.25777 24.4295V18.5589C3.25777 17.9219 3.43905 17.4182 3.80949 17.0214C4.16942 16.6351 4.62919 16.4497 5.21243 16.4497C5.79568 16.4497 6.20027 16.6089 6.51817 16.9352C6.83869 17.2641 6.99895 17.781 6.99895 18.4753V24.4295C6.99895 24.8863 7.15658 25.2753 7.4666 25.5807C7.77661 25.8887 8.16807 26.0453 8.62783 26.0453C9.0876 26.0453 9.50008 25.8861 9.80483 25.5729C10.1043 25.2648 10.2541 24.8811 10.2541 24.4269V18.5563C10.2541 17.9193 10.4354 17.4155 10.8058 17.0188C11.1657 16.6324 11.6176 16.4471 12.1877 16.4471C12.7578 16.4471 13.1756 16.6063 13.4935 16.9326C13.814 17.2615 13.9743 17.7784 13.9743 18.4727V24.4269C13.9743 24.8837 14.1319 25.2727 14.4419 25.5781C14.7519 25.8861 15.1407 26.0427 15.6005 26.0427C16.0603 26.0427 16.4728 25.8835 16.7775 25.5703C17.077 25.2622 17.2268 24.8785 17.2268 24.4243V18.4701C17.2268 16.9144 16.7985 15.6744 15.9552 14.7817C15.1013 13.8785 13.9743 13.4191 12.6055 13.4191L12.6081 13.4269Z" fill="#F6AE24"/>
<path d="M28.3584 14.1735C27.4914 13.6514 26.4562 13.3852 25.2819 13.3852C24.1075 13.3852 23.0224 13.6593 22.0793 14.1996C21.1335 14.7426 20.3873 15.5074 19.8566 16.4758C19.3312 17.4364 19.0658 18.5302 19.0658 19.7283C19.0658 20.9265 19.3496 22.028 19.9065 22.9834C20.4661 23.944 21.2543 24.7036 22.2474 25.2413C23.2326 25.7765 24.3597 26.0479 25.5945 26.0479C26.296 26.0479 27.0369 25.92 27.7935 25.6642C28.558 25.4084 29.207 25.0717 29.7193 24.6671C30.0844 24.3956 30.2789 24.0249 30.2789 23.5994C30.2789 23.2993 30.1817 22.8633 29.7193 22.4796C29.4592 22.2447 29.1229 22.1272 28.7157 22.1272C28.3084 22.1272 27.9774 22.2421 27.6858 22.4692C27.4441 22.6545 27.1209 22.8137 26.7242 22.9469C26.3301 23.08 25.9518 23.1452 25.5945 23.1452C24.6566 23.1452 23.8921 22.8947 23.2563 22.3752C22.7939 21.9993 22.476 21.5503 22.2842 21.0074H29.5327C29.961 21.0074 30.3235 20.869 30.6125 20.5923C30.9015 20.3156 31.0565 19.9502 31.0565 19.5351C31.0565 18.3579 30.8253 17.2955 30.3708 16.3766C29.9058 15.4369 29.228 14.6956 28.3584 14.1709V14.1735ZM25.2819 16.2853C26.0595 16.2853 26.6638 16.5071 27.1341 16.9587C27.4887 17.3007 27.7357 17.721 27.8855 18.2352H22.3183C22.4996 17.7314 22.7807 17.319 23.1696 16.9796C23.7055 16.5124 24.3965 16.2853 25.2845 16.2853H25.2819Z" fill="#F6AE24"/>
<path d="M48.4882 14.2179C47.5188 13.6645 46.4337 13.3852 45.2672 13.3852C44.1007 13.3852 43.0183 13.6671 42.062 14.2205C41.1083 14.7739 40.3412 15.5439 39.7842 16.5045C39.2272 17.4678 38.9461 18.551 38.9461 19.7257V28.3842C38.9461 28.8593 39.1064 29.2508 39.4216 29.5536C39.7316 29.8512 40.1178 30 40.575 30C41.0321 30 41.442 29.846 41.7441 29.5458C42.0462 29.243 42.2012 28.8541 42.2012 28.3842V24.8994C42.506 25.1265 42.8344 25.3249 43.1812 25.4919C43.951 25.86 44.7943 26.0453 45.685 26.0453C46.791 26.0453 47.8104 25.766 48.7115 25.2126C49.61 24.6619 50.3273 23.8944 50.8396 22.9286C51.3493 21.9706 51.6067 20.8925 51.6067 19.7231C51.6067 18.5537 51.3283 17.4651 50.7792 16.5045C50.2301 15.5413 49.4577 14.7713 48.4882 14.2153V14.2179ZM43.662 16.7969C44.1428 16.5071 44.6682 16.3662 45.2699 16.3662C45.8715 16.3662 46.4022 16.5098 46.8777 16.7969C47.3559 17.084 47.7395 17.486 48.0179 17.9924C48.2991 18.5041 48.4409 19.0862 48.4409 19.7257C48.4409 20.3652 48.2991 20.9395 48.0179 21.4459C47.7395 21.9471 47.3533 22.3465 46.8777 22.6336C46.4048 22.9181 45.8636 23.0643 45.2699 23.0643C44.6761 23.0643 44.1428 22.9234 43.662 22.6336C43.1838 22.3465 42.8055 21.9471 42.5349 21.4485C42.259 20.9447 42.1198 20.3652 42.1198 19.7257C42.1198 19.0862 42.259 18.5014 42.5349 17.9898C42.8081 17.486 43.1865 17.084 43.662 16.7969Z" fill="#1F1F1F"/>
<path d="M55.5108 17.7131C55.0537 17.7131 54.6675 17.8645 54.3575 18.1595C54.0422 18.4623 53.8819 18.8538 53.8819 19.3289V24.4295C53.8819 24.8863 54.0396 25.2753 54.3496 25.5807C54.6596 25.8887 55.0484 26.0453 55.5082 26.0453C55.9679 26.0453 56.3804 25.8861 56.6852 25.5755C56.9847 25.2701 57.1371 24.8837 57.1371 24.4295V19.3289C57.1371 18.8591 56.9821 18.4675 56.6799 18.1673C56.3778 17.8671 55.9837 17.7131 55.5108 17.7131Z" fill="#1F1F1F"/>
<path d="M69.6427 23.495L65.9225 18.9609L69.3537 16.1887C69.7084 15.9015 69.8949 15.51 69.8949 15.0506C69.8949 14.6642 69.7504 14.3118 69.4824 14.0378C69.1961 13.6984 68.8046 13.5183 68.3527 13.5183C67.9613 13.5183 67.5961 13.6671 67.336 13.9255L63.2139 17.319V15.0219C63.2139 14.1422 62.494 13.4269 61.6086 13.4269C60.7232 13.4269 60.0034 14.1422 60.0034 15.0219V24.4582C60.0034 25.3379 60.7232 26.0532 61.6086 26.0532C62.494 26.0532 63.2139 25.3379 63.2139 24.4582V21.3546L63.5922 21.023L67.1994 25.4554C67.5015 25.8417 67.914 26.0453 68.3948 26.0453C68.76 26.0453 69.1067 25.9174 69.422 25.6668C69.8003 25.3536 70 24.9385 70 24.4713C70 24.085 69.8765 23.7482 69.6401 23.4924L69.6427 23.495Z" fill="#1F1F1F"/>
<path d="M33.6575 24.2442C33.5813 24.2442 33.5182 24.3068 33.5182 24.3825C33.5182 25.505 34.5639 25.6616 34.5744 25.6642C34.6506 25.6721 34.7215 25.6225 34.732 25.5468C34.7425 25.4711 34.69 25.4006 34.6138 25.3901C34.5796 25.3849 33.7967 25.2596 33.7967 24.3825C33.7967 24.3068 33.7337 24.2442 33.6575 24.2442Z" fill="white"/>
<path d="M33.6575 23.9492C33.7373 23.9492 33.802 23.885 33.802 23.8057C33.802 23.7264 33.7373 23.6621 33.6575 23.6621C33.5777 23.6621 33.513 23.7264 33.513 23.8057C33.513 23.885 33.5777 23.9492 33.6575 23.9492Z" fill="white"/>
<path d="M30.2027 11.4535C30.6835 11.9286 31.4322 11.9547 31.8762 11.5083L35.7409 7.66853C36.1875 7.22738 36.1612 6.48082 35.6857 6.00574C35.557 5.87523 35.402 5.77864 35.2365 5.71599C35.1708 5.68989 35.0998 5.70294 35.0525 5.74993L29.9426 10.827C29.8953 10.874 29.8822 10.9445 29.9084 11.0098C29.9715 11.1742 30.0687 11.3256 30.2 11.4561L30.2027 11.4535Z" fill="#F6AE24"/>
<path d="M28.3295 0.00195776C28.2769 -0.00587327 28.2217 0.00978878 28.185 0.0489439L24.21 3.99839C24.1732 4.03494 24.1548 4.08975 24.1627 4.14196C24.2021 4.38733 24.3308 5.12867 24.5252 5.91438C24.5567 6.0449 24.7196 6.09188 24.8142 6.00052L30.2 0.649322C30.2946 0.55535 30.2447 0.393509 30.1133 0.362185C29.3199 0.16902 28.5738 0.0437232 28.3295 0.00195776Z" fill="#F6AE24"/>
<path d="M31.5977 0.884253L25.048 7.39183C24.9981 7.44143 24.985 7.51713 25.0165 7.58239C25.1452 7.85125 25.4553 8.45946 25.8283 8.94238C25.8914 9.02591 26.0149 9.03374 26.0858 8.96326L33.1793 1.91534C33.2503 1.84486 33.2424 1.72217 33.1583 1.65952C32.6696 1.28886 32.0601 0.980836 31.7895 0.852929C31.7238 0.821605 31.6477 0.834657 31.5977 0.884253Z" fill="#F6AE24"/>
<path d="M34.5691 3.60684C34.4693 3.29621 34.3248 3.01168 34.1645 2.7637C34.1067 2.67234 33.9806 2.65929 33.9044 2.73499L26.9107 9.68371C26.8346 9.75941 26.8477 9.88471 26.9396 9.94214C27.1892 10.1014 27.4756 10.2475 27.7882 10.3441C27.7882 10.3441 28.1061 10.4459 28.5344 10.5556C28.5922 10.5712 28.6526 10.5556 28.6946 10.5112L34.7399 4.5048C34.7819 4.46303 34.7977 4.40299 34.7846 4.34557C34.6716 3.92269 34.5718 3.60423 34.5718 3.60423L34.5691 3.60684Z" fill="#F6AE24"/>
</svg>
