<svg width="68" height="60" viewBox="0 0 68 60" fill="none" xmlns="http://www.w3.org/2000/svg">
<path d="M29.9934 52.7305C29.6911 52.7305 29.447 52.4966 29.447 52.2068V13.8037C29.447 13.5139 29.6911 13.28 29.9934 13.28C30.2957 13.28 30.5397 13.5139 30.5397 13.8037V52.2068C30.5397 52.4966 30.2957 52.7305 29.9934 52.7305Z" fill="black"/>
<path d="M53.6325 55H14.3675C13.0599 55 12 53.984 12 52.7305V13.2695C12 12.016 13.0599 11 14.3675 11H53.6325C54.9401 11 56 12.016 56 13.2695V52.7305C56 53.984 54.9401 55 53.6325 55ZM14.3675 12.0475C13.6646 12.0475 13.0927 12.5956 13.0927 13.2695V52.7305C13.0927 53.4044 13.6646 53.9525 14.3675 53.9525H53.6325C54.3354 53.9525 54.9073 53.4044 54.9073 52.7305V13.2695C54.9073 12.5956 54.3354 12.0475 53.6325 12.0475H14.3675Z" fill="black"/>
<path d="M52.7911 13.273H15.2089C14.6917 13.273 14.2728 13.6745 14.2728 14.1703V51.8262C14.2728 52.322 14.6917 52.7235 15.2089 52.7235H29.9424C29.9424 52.7235 29.9752 52.727 29.9897 52.727C30.0043 52.727 30.0225 52.7235 30.0371 52.7235H52.7838C53.301 52.7235 53.7199 52.322 53.7199 51.8262V14.1703C53.7199 13.6745 53.301 13.273 52.7838 13.273H52.7911ZM29.447 51.6761H15.3656V41.4355H29.447V51.6761ZM29.447 40.3915H15.3656V26.3103H29.447V40.3915ZM29.447 25.2593H15.3656V14.3204H29.447V25.2593ZM52.6344 51.6761H30.5397V20.9543H52.6344V51.6761ZM52.6344 19.9068H30.5397V14.3239H52.6344V19.9068Z" fill="black"/>
<path d="M28.2341 22.3369C28.2341 21.4152 27.451 20.6645 26.4894 20.6645H18.3232C17.3616 20.6645 16.5821 21.4082 16.5785 22.3265C16.5785 22.7594 16.7497 23.1749 17.0629 23.4856C16.3964 24.1525 16.4219 25.207 17.1176 25.8459C17.4417 26.1462 17.8752 26.3103 18.3268 26.3103H26.4931C27.4546 26.3103 28.2341 25.5701 28.2378 24.6483C28.2378 24.2154 28.0666 23.7999 27.7533 23.4891C28.0629 23.1784 28.2378 22.7699 28.2378 22.3404L28.2341 22.3369ZM18.3232 21.7085H26.4894C26.85 21.7015 27.1487 21.9738 27.156 22.3195C27.1633 22.6651 26.8791 22.9514 26.5185 22.9584C26.5076 22.9584 26.4967 22.9584 26.4894 22.9584H18.3232C17.9626 22.9514 17.6785 22.6651 17.6858 22.3195C17.6931 21.9843 17.9735 21.7154 18.3232 21.7085ZM26.4858 25.2593H18.3195C17.9589 25.2523 17.6748 24.966 17.6821 24.6204C17.6894 24.2852 17.9699 24.0164 18.3195 24.0094H26.4858C26.8464 24.0024 27.145 24.2747 27.1523 24.6204C27.1596 24.966 26.8755 25.2523 26.5149 25.2593C26.504 25.2593 26.4931 25.2593 26.4858 25.2593Z" fill="black"/>
<path d="M27.8553 36.3169C28.5219 35.6501 28.4964 34.5956 27.8007 33.9567C27.4765 33.6564 27.0431 33.4923 26.5914 33.4923H18.4252C17.4636 33.4923 16.6841 34.2325 16.6805 35.1543C16.6805 35.5872 16.8517 36.0027 17.1649 36.3134C16.5202 36.9559 16.5202 37.9719 17.1649 38.6109C16.4984 39.2777 16.5238 40.3322 17.2195 40.9711C17.5437 41.2679 17.9772 41.4355 18.4288 41.4355H26.595C27.5566 41.4355 28.3361 40.6918 28.3397 39.77C28.3397 39.3371 28.1686 38.9251 27.8553 38.6109C28.5 37.9684 28.5 36.9524 27.8553 36.3134V36.3169ZM17.7768 37.4656C17.7768 37.12 18.0682 36.8407 18.4288 36.8407H26.595C26.9556 36.8477 27.2397 37.134 27.2325 37.4796C27.2252 37.8148 26.9447 38.0836 26.595 38.0906H18.4288C18.0682 38.0906 17.7768 37.8113 17.7768 37.4656ZM18.4288 34.5398H26.595C26.9556 34.5467 27.2397 34.833 27.2325 35.1787C27.2252 35.5139 26.9447 35.7827 26.595 35.7897H18.4288C18.0682 35.7967 17.7695 35.5244 17.7623 35.1787C17.755 34.833 18.0391 34.5467 18.3997 34.5398C18.4106 34.5398 18.4215 34.5398 18.4288 34.5398ZM26.595 40.388H18.4288C18.0682 40.388 17.7768 40.1087 17.7768 39.7631C17.7768 39.4174 18.0682 39.1381 18.4288 39.1381H26.595C26.9556 39.1381 27.247 39.4174 27.247 39.7631C27.247 40.1087 26.9556 40.388 26.595 40.388Z" fill="black"/>
<path d="M51.8222 30.9854C51.5308 29.9065 50.7513 27.2844 49.8225 26.3033C49.2761 25.6923 48.5987 25.1965 47.8411 24.8508C47.4914 24.6972 47.0907 24.7007 46.7447 24.8648C46.2603 24.4947 45.7248 24.0652 45.3497 23.737C45.5136 23.5136 45.6593 23.2796 45.7868 23.0352C46.5371 21.5828 46.4023 20.3398 45.4407 19.7916C44.9454 19.5088 44.3371 19.4634 43.8017 19.6729C43.3099 19.8649 42.942 20.27 42.8109 20.7623C42.7381 21.0416 42.9129 21.3279 43.2043 21.3977C43.4957 21.4676 43.7944 21.3 43.8672 21.0206C43.9146 20.8461 44.042 20.7064 44.2169 20.6401C44.4354 20.5563 44.6795 20.5772 44.8798 20.6924C45.3897 20.9857 45.1566 21.8865 44.8033 22.5744C44.6321 22.8956 44.4281 23.1993 44.195 23.4822C43.7834 23.9814 43.3281 24.4458 42.8364 24.8753C42.5122 24.7775 42.1626 24.8054 41.8603 24.9591C41.7765 25.001 41.6781 25.0498 41.5689 25.1022C41.3904 25.1895 41.1755 25.2942 40.9533 25.413C40.7056 24.994 40.243 24.7391 39.7404 24.7391H39.1722C38.4546 24.2782 37.8901 23.8872 37.5295 23.6113C37.7225 23.3914 37.8864 23.154 38.0248 22.8991C38.7934 21.4396 38.6841 20.2804 37.7189 19.7183C37.1762 19.425 36.5169 19.4145 35.9632 19.6904C35.4132 19.9487 35.0381 20.4585 34.9762 21.0416C34.947 21.3279 35.1656 21.5863 35.4679 21.6142C35.7666 21.6421 36.0361 21.4326 36.0652 21.1428C36.0944 20.9159 36.2437 20.7204 36.4586 20.6261C36.6735 20.5109 36.9358 20.5074 37.1579 20.6121C37.7444 20.9543 37.2818 21.9948 37.0523 22.4277C36.8666 22.7454 36.6371 23.0387 36.3675 23.2971C35.8285 23.8208 35.2493 24.3061 34.6265 24.7391H34.1384C33.5447 24.7391 33.0166 25.0952 32.8162 25.6329C31.9056 28.1817 31.5159 30.8772 31.6725 33.5656C31.7599 34.7877 31.8765 37.8392 31.9275 45.4333V45.5275C31.9275 45.9465 32.2371 46.3061 32.6669 46.383C33.0712 46.4493 33.4828 46.4807 33.8944 46.4737C34.448 46.4737 34.998 46.4353 35.548 46.362C35.9632 46.2992 36.2838 45.971 36.3166 45.5694L36.7901 40.0354L37.2126 45.5939C37.2381 45.9814 37.5295 46.3061 37.9265 46.3899C38.8881 46.5156 39.8642 46.5052 40.8222 46.3585C41.2702 46.3061 41.6126 45.9535 41.6271 45.5206L41.6344 45.3215C41.6672 44.3719 41.7401 42.1792 41.8275 39.9027C42.6069 39.9621 43.503 39.9935 44.4828 39.9935C46.0271 39.9935 47.7682 39.9202 49.5275 39.77C49.8298 39.7456 50.052 39.4907 50.0228 39.2009L49.4146 32.8394C49.4 32.6788 49.5093 32.5356 49.6732 32.5007C50.2523 32.3995 50.8132 32.2249 51.3414 31.9805C51.7238 31.8024 51.9242 31.3904 51.8185 30.9924L51.8222 30.9854ZM44.6795 24.561C45.0182 24.8543 45.4298 25.1825 45.7685 25.4479C45.1384 25.7412 44.4063 25.7481 43.7689 25.4688C44.042 25.2174 44.3626 24.9102 44.6795 24.561ZM36.7864 24.3725C36.9248 24.4807 37.0851 24.5994 37.2745 24.7356H36.3712C36.5169 24.6134 36.6589 24.4912 36.7864 24.3725ZM40.5454 45.2831V45.3285C39.8023 45.4298 39.0483 45.4507 38.298 45.3844L37.3983 33.5936C37.3983 33.5691 37.402 33.5482 37.3983 33.5237L37.2818 31.8234C37.2781 31.7466 37.2526 31.6697 37.2126 31.6034L36.3967 30.2138C36.2437 29.9589 35.9086 29.8681 35.6427 30.0113C35.3805 30.1474 35.2785 30.4617 35.4205 30.7131C35.4205 30.7131 35.4242 30.72 35.4278 30.7235L36.1818 32.0084L36.2692 33.2968L35.2421 45.3425C34.5063 45.4403 33.7632 45.4507 33.0238 45.3739C32.9692 37.7869 32.8526 34.7248 32.7652 33.4888C32.6195 30.94 32.9874 28.3877 33.8507 25.9751C33.8944 25.8564 34.0109 25.7796 34.1421 25.7831H39.7477C39.8788 25.7831 39.9954 25.8634 40.0391 25.9821L40.1483 26.3277C40.8914 28.7543 41.1973 31.2822 41.0553 33.8065C40.9715 34.8156 40.8768 36.5648 40.7639 39.3057C40.6619 41.7777 40.5818 44.2566 40.5454 45.2831ZM49.4656 31.4672C48.7517 31.6034 48.2636 32.2354 48.3328 32.9302L48.8901 38.7645C46.5553 38.96 44.2132 38.9879 41.8748 38.8483C41.9805 36.4042 42.0679 34.8226 42.1444 33.8869C42.2937 31.3695 42.0132 28.8486 41.3103 26.4185C41.5762 26.2684 41.842 26.1392 42.0715 26.0275C42.1917 25.9681 42.2973 25.9192 42.3848 25.8738C42.454 25.8424 42.5341 25.8529 42.5924 25.9018C42.6069 25.9122 42.6215 25.9262 42.6361 25.9402C43.6742 27.04 45.7613 26.9876 47.1891 25.8284C47.2437 25.7831 47.3166 25.7726 47.3821 25.804C48.0086 26.0938 48.5622 26.5023 49.0139 27.0121C49.6185 27.6545 50.2851 29.519 50.7258 31.1041C50.3252 31.2752 49.9026 31.4009 49.4692 31.4742L49.4656 31.4672Z" fill="black"/>
<path d="M22.053 51.3863C21.9255 50.5518 21.8927 49.7069 21.951 48.8619C21.9546 48.6943 21.9473 48.5302 21.9255 48.3626C21.8017 47.2733 21.1242 46.4807 20.2391 46.3899C19.6053 46.3131 18.9788 46.5855 18.6255 47.0987C18.3159 47.5282 18.1411 48.0379 18.1265 48.5617C18.1156 48.7013 18.1119 48.848 18.1046 48.9946C18.1046 49.3507 18.0682 49.7034 18.0063 50.0525C17.8387 50.7229 17.7003 51.2501 17.5911 51.6132C17.4563 52.0776 17.7368 52.5594 18.2212 52.6886C18.3013 52.7096 18.3851 52.7201 18.4689 52.7201H21.197C21.6997 52.7201 22.1076 52.3255 22.1076 51.8437C22.1076 51.8088 22.1076 51.7738 22.1003 51.7389C22.0821 51.6097 22.0639 51.498 22.0493 51.3828L22.053 51.3863ZM20.5523 51.6761C20.5523 51.2536 20.596 50.8346 20.6798 50.4226C20.7454 50.1398 20.556 49.8605 20.2609 49.7977C19.9659 49.7348 19.6745 49.9164 19.6089 50.1992C19.5069 50.6845 19.456 51.1803 19.456 51.6761H18.7056C18.8076 51.3165 18.9278 50.8521 19.0735 50.276C19.15 49.864 19.1901 49.4485 19.1937 49.033C19.1973 48.8968 19.2046 48.7642 19.2119 48.6385C19.2119 48.3138 19.3139 47.9925 19.5033 47.7237C19.6271 47.5142 19.8785 47.399 20.1262 47.4409C20.4139 47.4688 20.7599 47.811 20.8364 48.4953C20.851 48.6105 20.8583 48.7293 20.8546 48.8445C20.7927 49.7488 20.8291 50.6566 20.9675 51.5539C20.9748 51.5958 20.9821 51.6412 20.9894 51.6831H20.5523V51.6761Z" fill="black"/>
<path d="M27.2325 51.6132C27.1232 51.2466 26.9848 50.7229 26.8209 50.0735C26.7553 49.7174 26.7225 49.3542 26.7189 48.9946C26.7152 48.8445 26.7079 48.7013 26.697 48.5582C26.6825 48.0344 26.5113 47.5282 26.198 47.0987C25.8447 46.5855 25.2146 46.3096 24.5772 46.3899C23.6957 46.4807 23.0219 47.2733 22.898 48.3522C22.8762 48.5198 22.8689 48.6908 22.8725 48.8619C22.9308 49.7034 22.898 50.5483 22.7705 51.3828C22.7523 51.4945 22.7341 51.6098 22.7159 51.7389C22.654 52.2173 23.0109 52.6537 23.5099 52.7131C23.5464 52.7166 23.5828 52.7201 23.6192 52.7201H26.3474C26.85 52.7201 27.2579 52.329 27.2579 51.8472C27.2579 51.7669 27.247 51.6866 27.2252 51.6098L27.2325 51.6132ZM25.3676 51.6761C25.3676 51.1803 25.3166 50.6845 25.2146 50.1992C25.149 49.9164 24.8576 49.7383 24.5626 49.7977C24.2676 49.8605 24.0818 50.1398 24.1437 50.4226C24.2311 50.8346 24.2748 51.2536 24.2712 51.6761H23.8305C23.8378 51.6307 23.845 51.5888 23.8523 51.5469C23.9871 50.6496 24.0272 49.7453 23.9652 48.841C23.9652 48.7188 23.9652 48.6001 23.9834 48.4814C24.0599 47.804 24.406 47.4653 24.6864 47.4374C24.9378 47.3955 25.1891 47.5072 25.3166 47.7202C25.506 47.9891 25.6043 48.3068 25.6043 48.6315C25.6152 48.7607 25.6189 48.8934 25.6225 49.0295C25.6262 49.4555 25.6699 49.878 25.75 50.2969C25.8884 50.8556 26.0123 51.32 26.1142 51.6761H25.3639H25.3676Z" fill="black"/>
<circle cx="17" cy="16" r="12" fill="#F6AE24"/>
<path d="M17.264 18.848H15.984L15.36 17.024H13.024L12.4 18.848H11.12L13.408 12.272H14.976L17.264 18.848ZM14.192 13.624L13.416 15.896H14.968L14.192 13.624ZM19.1988 18.848H17.9428V12.272H19.1988V18.848ZM21.5738 18.848H20.3178V12.272H21.5738V18.848Z" fill="white"/>
</svg>
