<svg width="68" height="60" viewBox="0 0 68 60" fill="none" xmlns="http://www.w3.org/2000/svg">
<path d="M50.3783 28.7041C50.7203 28.4433 51.0502 28.1767 51.3742 27.8922C51.6142 27.6789 51.6382 27.3174 51.4342 27.0745L47.6546 22.5531C47.5406 22.4168 47.3786 22.3338 47.1986 22.3338H40.8513L39.3994 17.4213C39.3214 17.1606 39.0755 16.9887 38.7995 17.0006H37.5996C37.2697 17.0006 36.9997 17.2613 36.9937 17.5872C36.9937 17.6169 36.9937 17.6465 36.9937 17.6761L37.6716 22.3338H30.3224L30.9943 17.6761C31.0423 17.3502 30.8143 17.0539 30.4844 17.0065C30.4544 17.0065 30.4244 17.0006 30.3944 17.0065H29.1945C28.9185 16.9947 28.6726 17.1665 28.5946 17.4272L27.1307 22.2864H20.7774C20.5914 22.2864 20.4174 22.3694 20.3034 22.5175L16.6258 27.1989C16.4338 27.4478 16.4698 27.7974 16.7038 28.0048C16.9918 28.2537 17.3037 28.4907 17.5917 28.7218L16.0319 33.4032C15.9299 33.6995 16.0799 34.0255 16.3798 34.144L22.3792 36.5143C22.6852 36.6328 23.0331 36.4847 23.1591 36.1825L24.401 33.1129V48.4074C24.401 48.7333 24.671 49 25.0009 49H42.9991C43.329 49 43.599 48.7333 43.599 48.4074V33.1129L44.8409 36.1825C44.9609 36.4847 45.3088 36.6328 45.6208 36.5143L51.6202 34.144C51.9201 34.0255 52.0701 33.6995 51.9681 33.4032L50.3783 28.7041ZM45.3628 23.519C44.2409 24.2538 42.9871 24.7753 41.6732 25.0538L41.1993 23.519H45.3628ZM38.3495 18.1857L40.4793 25.2434C40.1194 25.2967 39.7594 25.2967 39.3994 25.2967H39.3214L38.2896 18.1857H38.3495ZM37.8456 23.519L38.1036 25.2967H29.8904L30.1544 23.4716L37.8456 23.519ZM29.6505 18.1857H29.7104L28.6786 25.2967H28.6006C28.2406 25.2967 27.8806 25.2967 27.5207 25.2434L29.6505 18.1857ZM26.3268 25.0478C24.9769 24.7634 23.6931 24.2182 22.5532 23.4538H26.8067L26.3268 25.0478ZM20.9274 23.6968C23.0751 25.4864 25.7929 26.476 28.6006 26.4819H39.3994C42.2131 26.4819 44.9309 25.5041 47.0846 23.7205L50.1443 27.3826C49.3944 28.0048 48.5905 28.5559 47.7446 29.0418L45.9448 26.1737L44.9249 26.8019L46.6887 29.587C45.5008 30.15 44.2469 30.5707 42.9571 30.8433L42.3991 28.71L41.1993 28.9944L41.7152 31.0448C40.9473 31.1574 40.1734 31.2166 39.3994 31.2225H38.1996V28.2596H36.9997V31.2225H34.5519L34.5999 30.0374H33.4001L33.3461 31.2225H31.0003V28.2596H29.8004V31.2225H28.6006C27.8206 31.2225 27.0407 31.1574 26.2668 31.0448L26.8007 28.9944L25.6009 28.71L25.0609 30.8374C23.7711 30.5648 22.5172 30.144 21.3293 29.5811L23.0931 26.796L22.0732 26.1678L20.2734 29.0359C19.4515 28.5737 18.6776 28.0463 17.9457 27.4537L20.9274 23.6968ZM22.2652 35.1928L17.3457 33.2492L18.6416 29.4448C20.1894 30.464 21.8873 31.2344 23.6751 31.7381L22.2652 35.1928ZM25.6009 47.8148V32.1529C26.5908 32.3188 27.5927 32.4077 28.6006 32.4077H39.3994C40.4073 32.4077 41.4092 32.3188 42.3991 32.1529V47.8148H25.6009ZM45.7348 35.1928L44.3309 31.7262C46.1187 31.2285 47.8106 30.4581 49.3584 29.4448L50.6483 33.267L45.7348 35.1928Z" fill="black"/>
</svg>
