<svg width="68" height="60" viewBox="0 0 68 60" fill="none" xmlns="http://www.w3.org/2000/svg">
<path d="M34.0001 29.6663C35.9108 29.6647 37.4598 28.173 37.4616 26.3331V23.6664C37.4616 23.2981 37.1518 22.9998 36.7693 22.9998H31.2309C30.8484 22.9998 30.5386 23.2981 30.5386 23.6664V26.3331C30.5403 28.173 32.0894 29.6647 34.0001 29.6663ZM31.9232 24.3331H36.077V26.3331C36.077 27.4372 35.1467 28.333 34.0001 28.333C32.8535 28.333 31.9232 27.4372 31.9232 26.3331V24.3331Z" fill="black"/>
<path d="M42.7974 25.8614L40.923 24.0564V20.3657L41.6118 13.7325C41.6499 13.3658 41.373 13.0392 40.9922 13.0025C40.9688 13.0008 40.9463 13 40.923 13H38.1538C37.7981 13 37.5004 13.2592 37.4649 13.6L36.835 19.6665H31.165L30.5351 13.6C30.4996 13.2592 30.2019 13 29.8462 13H27.077C26.6945 13 26.3847 13.2983 26.3847 13.6667C26.3847 13.6892 26.3856 13.7108 26.3882 13.7333L27.077 20.3665V24.0573L25.2026 25.8622C25.0573 26.0022 24.9846 26.1972 25.0027 26.3939L25.6924 33.6971V52.3333C25.6924 52.7017 26.0022 53 26.3847 53H31.9231C32.3056 53 32.6154 52.7017 32.6154 52.3333V49.6951L33.0593 44.5618C33.1995 42.9494 33.5145 41.3552 34 39.8053C34.4855 41.3544 34.8005 42.9485 34.9407 44.5618L35.3846 49.6951V52.3333C35.3846 52.7017 35.6944 53 36.0769 53H41.6153C41.9978 53 42.3076 52.7017 42.3076 52.3333V33.6971L42.9973 26.3939C43.0154 26.1972 42.9427 26.0014 42.7974 25.8614ZM40.923 36.9095C39.9572 36.652 39.2355 35.8779 39.0737 34.9262L38.9707 34.3329H40.923V36.9095ZM38.5034 16.9999H39.8811L39.6041 19.6665H38.2265L38.5034 16.9999ZM40.158 14.3333L40.0195 15.6666H38.6418L38.7803 14.3333H40.158ZM29.7735 19.6665H28.3959L28.1189 16.9999H29.4966L29.7735 19.6665ZM29.2197 14.3333L29.3582 15.6666H27.9805L27.842 14.3333H29.2197ZM28.2591 24.8048C28.3889 24.6798 28.4616 24.5098 28.4616 24.3331V20.9998H39.5384V24.3331C39.5384 24.5098 39.6111 24.6798 39.7409 24.8048L41.5884 26.5839L40.9835 32.9996H27.0165L26.4107 26.5839L28.2591 24.8048ZM29.0293 34.3329L28.9263 34.9262C28.7645 35.8779 28.0428 36.652 27.077 36.9095V34.3329H29.0293ZM31.2308 51.6659H27.077V50.3326H31.2308V51.6659ZM34.6568 37.4553C34.5357 37.1062 34.1437 36.917 33.7811 37.0337C33.5742 37.1003 33.4115 37.2562 33.3432 37.4553L32.8941 38.752C32.2554 40.5978 31.8478 42.511 31.6799 44.4493L31.2862 48.9984H27.077V38.2736C28.7308 37.9953 30.021 36.7395 30.2919 35.1445L30.4321 34.3321H37.5671L37.7072 35.1445C37.979 36.7395 39.2684 37.9953 40.9221 38.2736V48.9984H36.7129L36.3192 44.4493C36.1513 42.5102 35.7437 40.5978 35.1051 38.752L34.6568 37.4553ZM40.923 51.6659H36.7692V50.3326H40.923V51.6659Z" fill="black"/>
<path d="M34.6924 25.6664H33.3078V26.9997H34.6924V25.6664Z" fill="black"/>
</svg>
