<svg width="68" height="60" viewBox="0 0 68 60" fill="none" xmlns="http://www.w3.org/2000/svg">
<path d="M28.2702 13.307C28.1465 13.1117 27.9335 13 27.6999 13C26.5526 13 25.4396 13.3838 24.519 14.0816L23.2068 15.0796C22.3411 15.7355 21.6953 16.6497 21.3586 17.6895L19.0365 24.7446C18.9197 25.0935 19.0915 25.4773 19.435 25.6169L24.0381 27.4941C24.3885 27.6336 24.7801 27.4662 24.9243 27.1172L26.3946 23.5932C26.6007 24.5492 26.7312 25.5122 26.7862 26.4892C26.6419 28.0035 26.3671 29.5038 25.9549 30.9693C25.7419 31.8625 25.5358 32.7069 25.4259 33.3419C24.6152 37.9826 23.7358 51.6811 23.6946 52.2603C23.6739 52.6441 23.9625 52.9791 24.3404 53C24.3541 53 24.3678 53 24.3816 53H43.6596C44.0375 53 44.3467 52.686 44.3467 52.3022C44.3467 52.2882 44.3467 52.2743 44.3467 52.2603C44.3054 51.6811 43.4467 37.9756 42.5879 33.335C42.4779 32.7418 42.265 31.9393 42.0451 31.1228C41.6466 29.8388 41.3718 28.5199 41.2138 27.187C41.255 26.0147 41.3924 24.8493 41.6192 23.6978L43.0551 27.1382C43.165 27.3964 43.4123 27.5639 43.6871 27.5639C43.7764 27.5639 43.8589 27.5499 43.9413 27.515L48.565 25.6378C48.9085 25.4983 49.0803 25.1144 48.9635 24.7655L46.6413 17.6895C46.3047 16.6497 45.6589 15.7355 44.7932 15.0796L43.481 14.0816C42.5604 13.3838 41.4405 13.007 40.2932 13.007C40.0665 13.007 39.8535 13.1186 39.723 13.314L35.8275 19.127H35.8756L33.8763 19.4759L32.0694 19.1549L32.1519 19.0991L28.2702 13.307ZM23.9419 25.9449L20.548 24.5492L22.664 18.1151C22.9182 17.3405 23.3991 16.6706 24.0381 16.1821L25.3434 15.1982C25.9274 14.7516 26.6213 14.4864 27.3496 14.4166L30.3313 18.8688L26.2091 18.1291C25.8381 18.0593 25.474 18.3036 25.4053 18.6804C25.3846 18.7781 25.3915 18.8828 25.4121 18.9805C25.4121 18.9805 25.6457 19.9435 25.9068 21.1786L23.9419 25.9449ZM41.2138 33.6001C41.9558 37.5429 42.7184 48.6385 42.9108 51.6113H39.0978L38.4657 43.8793L37.0916 43.9979L37.7168 51.6113H34.3435V38.3524H32.9695V51.6113H29.5961L30.2213 43.9909L28.8473 43.8723L28.2152 51.6113H25.1098C25.3091 48.6315 26.0992 37.5499 26.7862 33.5862C26.8892 33 27.0885 32.1905 27.2946 31.3043L27.4732 30.5227V30.6762H40.5268L40.7398 31.4857C40.9253 32.2952 41.1245 33.0558 41.2138 33.6001ZM40.6504 14.4166C41.3787 14.4864 42.0726 14.7516 42.6566 15.1982L43.9619 16.1961C44.6009 16.6776 45.0818 17.3475 45.336 18.1151L47.4452 24.5492L44.0512 25.9449L42.0863 21.2205C42.3474 19.9505 42.5604 18.9944 42.5673 18.9735C42.6634 18.5967 42.4367 18.2198 42.0726 18.1291C41.9764 18.1082 41.8802 18.1012 41.784 18.1151L37.6619 18.813L40.6504 14.4166ZM34 20.9065L41.0077 19.6853C40.6024 21.5694 39.7985 25.5401 39.8398 27.2149C39.881 27.9197 39.984 28.6246 40.1558 29.3084H27.7892C28.0022 28.3803 28.1259 27.4382 28.1602 26.4892C28.0297 24.7446 27.7686 23.014 27.3633 21.3112L27.4183 21.1786L27.3289 21.1368C27.2121 20.5925 27.1022 20.09 27.006 19.6853L33.7664 20.9065C33.842 20.9204 33.9244 20.9204 34 20.9065Z" fill="black"/>
</svg>
