<svg width="68" height="60" viewBox="0 0 68 60" fill="none" xmlns="http://www.w3.org/2000/svg">
<path d="M41.7667 33.3612C41.8224 33.6333 42.0593 33.8303 42.338 33.8303H44.4191C44.577 33.8303 44.7257 33.7646 44.8325 33.652C44.944 33.5394 45.0044 33.3846 44.9998 33.2252C44.865 26.8269 43.8245 20.4849 41.9014 14.3868V14.3446L41.8689 14.2977C41.8456 14.2554 41.8178 14.2179 41.7853 14.1851L41.762 14.1569C41.7202 14.1194 41.6691 14.0866 41.618 14.0631L39.8018 13.2469L37.716 11.6145L37.5628 11.3143C37.4652 11.122 37.2655 11 37.0518 11H30.8969C30.6785 11 30.4834 11.122 30.3813 11.3143L30.228 11.6145L28.1423 13.2469L26.3538 14.0584C26.3027 14.0819 26.2517 14.1147 26.2098 14.1522V14.1804C26.1773 14.2132 26.1495 14.2507 26.1262 14.293L26.0984 14.3399V14.3821C24.1752 20.4849 23.1301 26.8362 23 33.2392C23 33.3987 23.0557 33.5535 23.1672 33.6661C23.2741 33.7787 23.4227 33.8443 23.5807 33.8443H25.6106C25.8893 33.8443 26.1262 33.6473 26.182 33.3753C26.182 33.3049 27.0553 28.2154 27.7706 24.4627L28.0494 26.4844C27.9611 27.0942 27.4176 30.8422 27.1482 33.7411C27.1342 33.9006 27.1853 34.0554 27.2875 34.1774C27.3897 34.2994 27.5384 34.3744 27.6963 34.3791H27.8264L27.399 54.3996C27.3944 54.5591 27.4548 54.7092 27.5662 54.8217C27.6731 54.9343 27.8217 55 27.9797 55H30.6739C30.9526 55 31.1895 54.8077 31.2453 54.5309L33.972 38.9902L36.6987 54.5028C36.7545 54.7795 36.9914 54.9765 37.2701 54.9719H39.9643C40.1223 54.9719 40.2709 54.9062 40.3778 54.7936C40.4892 54.681 40.5496 54.5309 40.545 54.3714L40.1223 34.3697H40.2523C40.4103 34.365 40.5589 34.29 40.6611 34.168C40.7633 34.0461 40.8144 33.8913 40.8005 33.7318C40.531 30.8328 39.9876 27.0849 39.8993 26.4751L40.178 24.4486C40.8934 28.1825 41.7527 33.2908 41.7667 33.3612ZM43.8199 32.6763H42.8258C42.4913 30.7015 41.2511 23.4776 40.6518 21.0337L41.4694 16.9714C42.849 22.0985 43.6387 27.3663 43.8199 32.6763ZM37.0657 12.5902L38.6544 13.8333L37.3816 15.2827C37.2608 15.4235 37.2097 15.6158 37.2469 15.7987L37.6371 17.5953L35.059 20.0908C35.5792 18.1348 36.3922 15.0951 37.0657 12.5902ZM33.972 19.6593C33.6747 18.5288 33.2195 16.8448 32.532 14.2742H35.412C34.7245 16.8307 34.2693 18.5288 33.972 19.6593ZM35.9741 12.1821L35.7279 13.1203H32.2161L31.9699 12.1821H35.9741ZM30.8644 12.5996C31.5379 15.1045 32.3508 18.1441 32.8711 20.1049L30.293 17.6094L30.7204 15.7987C30.7575 15.6158 30.7064 15.4235 30.5856 15.2827L29.2896 13.8333L30.8644 12.5996ZM25.1182 32.6763H24.1241C24.3053 27.3663 25.095 22.0938 26.4746 16.9667L27.2922 21.0337C26.6929 23.4729 25.4527 30.7015 25.1182 32.6763ZM28.4535 20.9493L27.2504 14.9309L28.2909 14.4618L29.4987 15.8409L29.1038 17.6657C29.062 17.8674 29.1224 18.0738 29.271 18.2145L33.3914 22.2064V29.6226L32.2997 33.4362L28.3606 33.2252C28.6672 30.209 29.2014 26.597 29.206 26.5548C29.2153 26.4985 29.2153 26.4469 29.206 26.3906L28.4535 20.9493ZM37.7439 53.832L34.5294 35.5377C34.4737 35.2188 34.1717 35.0077 33.8559 35.064C33.619 35.1062 33.4332 35.2938 33.3867 35.5377L30.1722 53.832H28.5743L28.983 34.4495L32.6992 34.6512H32.7271C32.9872 34.6512 33.2102 34.4776 33.2845 34.229L33.972 31.8132L34.6595 34.229C34.7338 34.4776 34.9568 34.6512 35.2169 34.6512H35.2448L38.961 34.4495L39.3744 53.832H37.7439ZM38.7241 26.5736C38.7241 26.6158 39.2629 30.2277 39.5695 33.2439L35.6303 33.455L34.5387 29.6414V22.2064L38.659 18.2145C38.8077 18.0738 38.8681 17.8674 38.8263 17.6657L38.4314 15.8409L39.6392 14.4618L40.6797 14.9309L39.4719 20.968L38.738 26.3906C38.7287 26.4469 38.7287 26.4985 38.738 26.5548L38.7241 26.5736Z" fill="black"/>
</svg>
