<svg width="100" height="100" viewBox="0 0 100 100" fill="none" xmlns="http://www.w3.org/2000/svg">
<rect width="100" height="100" fill="white"/>
<path d="M75.1137 58.04L63.8637 69.29C63.8637 69.29 63.8637 69.29 63.8637 69.3V81.19C63.8637 85.42 67.1437 89.03 71.3737 89.18C75.6037 89.33 79.4537 85.78 79.4537 81.39V64.99C79.4537 61.95 77.7037 59.31 75.1537 58.03C75.1537 58.03 75.1437 58.03 75.1337 58.03L75.1137 58.04Z" fill="#F6AE24"/>
<path d="M66.0737 80.36C65.7037 80.36 65.3937 80.66 65.3937 81.04C65.3937 86.52 70.4637 87.29 70.5137 87.3C70.8737 87.34 71.2237 87.1 71.2737 86.73C71.3237 86.36 71.0737 86.02 70.7037 85.96C70.5437 85.94 66.7437 85.33 66.7437 81.05C66.7437 80.68 66.4437 80.37 66.0637 80.37L66.0737 80.36Z" fill="white"/>
<path d="M66.0737 78.92C66.4658 78.92 66.7837 78.6021 66.7837 78.21C66.7837 77.8178 66.4658 77.5 66.0737 77.5C65.6816 77.5 65.3637 77.8178 65.3637 78.21C65.3637 78.6021 65.6816 78.92 66.0737 78.92Z" fill="white"/>
<path d="M49.3137 65.91C51.6437 68.23 55.2737 68.35 57.4337 66.18L76.1837 47.43C78.3537 45.27 78.2237 41.64 75.9137 39.31C75.2837 38.68 74.5337 38.2 73.7437 37.89C73.4237 37.77 73.0837 37.83 72.8537 38.06L48.0737 62.84C47.8437 63.07 47.7837 63.41 47.9037 63.73C48.2137 64.53 48.6837 65.27 49.3237 65.9L49.3137 65.91Z" fill="#F6AE24"/>
<path d="M40.2237 10.01C39.9637 9.96997 39.7037 10.05 39.5237 10.23L20.2337 29.53C20.0537 29.71 19.9637 29.97 20.0137 30.23C20.2137 31.42 20.8337 35.04 21.7737 38.89C21.9237 39.53 22.7237 39.76 23.1737 39.31L49.3037 13.17C49.7537 12.72 49.5237 11.93 48.8837 11.77C45.0437 10.83 41.4237 10.21 40.2237 10.01Z" fill="#F6AE24"/>
<path d="M24.3037 46.08C24.0637 46.32 24.0037 46.69 24.1537 47.01C24.7737 48.32 26.2737 51.29 28.0937 53.65C28.4037 54.05 28.9937 54.1 29.3437 53.75L63.7537 19.34C64.1037 18.99 64.0537 18.4 63.6537 18.09C61.2837 16.28 58.3237 14.78 57.0137 14.15C56.6937 14 56.3237 14.06 56.0837 14.3L24.3037 46.08Z" fill="#F6AE24"/>
<path d="M70.4937 27.6C70.0137 26.08 69.3037 24.69 68.5337 23.48C68.2537 23.04 67.6337 22.98 67.2637 23.35L33.3437 57.27C32.9737 57.64 33.0337 58.26 33.4737 58.54C34.6937 59.31 36.0737 60.02 37.5937 60.5C37.5937 60.5 39.1437 60.99 41.2137 61.54C41.4937 61.61 41.7937 61.54 41.9937 61.33L71.3137 32.01C71.5137 31.81 71.6037 31.51 71.5237 31.23C70.9837 29.16 70.4837 27.61 70.4837 27.61L70.4937 27.6Z" fill="#F6AE24"/>
</svg>
