<svg width="165" height="166" viewBox="0 0 165 166" fill="none" xmlns="http://www.w3.org/2000/svg">
<path d="M82.5 165.75L0 123.21V42.54L82.5 0L165 42.54V123.2L82.5 165.74V165.75ZM6 119.55L82.5 159L159 119.55V46.2L82.5 6.75L6 46.2V119.55Z" fill="#F5AC35"/>
<path d="M127.51 76.35C127.51 61.44 115.42 49.34 100.5 49.34C93.58 49.34 87.27 51.94 82.49 56.22C77.71 51.94 71.4 49.34 64.48 49.34C49.57 49.34 37.47 61.43 37.47 76.35V107.29C37.47 107.29 37.47 107.36 37.47 107.4C37.47 112.37 41.5 116.4 46.47 116.4C51.44 116.4 55.47 112.37 55.47 107.4V76.35C55.47 71.38 59.5 67.35 64.47 67.35C69.44 67.35 73.47 71.38 73.47 76.35V107.29C73.47 107.29 73.47 107.36 73.47 107.4C73.47 112.37 77.5 116.4 82.47 116.4C87.44 116.4 91.47 112.37 91.47 107.4V76.35C91.47 71.38 95.5 67.35 100.47 67.35C105.44 67.35 109.47 71.38 109.47 76.35V107.29C109.47 107.29 109.47 107.36 109.47 107.4C109.47 112.37 113.5 116.4 118.47 116.4C123.44 116.4 127.47 112.37 127.47 107.4V76.35H127.51Z" fill="#F5AB35"/>
</svg>
